<?xml version="1.0" encoding="utf-8"?>
<!-- Generator: Adobe Illustrator 16.0.0, SVG Export Plug-In . SVG Version: 6.00 Build 0)  -->
<!DOCTYPE svg PUBLIC "-//W3C//DTD SVG 1.1//EN" "http://www.w3.org/Graphics/SVG/1.1/DTD/svg11.dtd">
<svg version="1.1" id="Layer_1" xmlns="http://www.w3.org/2000/svg" xmlns:xlink="http://www.w3.org/1999/xlink" x="0px" y="0px"
	 width="57.076px" height="85.652px" viewBox="0 0 57.076 85.652" enable-background="new 0 0 57.076 85.652" xml:space="preserve">
<g>
	<g>
		<text transform="matrix(1 0 0 1 2.6191 68)"><tspan x="0" y="0" font-family="'RobotoCondensed-Regular'" font-size="12">Cetak Surat</tspan><tspan x="-2.657" y="14.4" font-family="'RobotoCondensed-Regular'" font-size="12">Permohonan</tspan></text>
		<g>
			<path fill="none" stroke="#000000" stroke-miterlimit="10" d="M55.538,47.401c0,2.54-2.059,5.099-4.6,5.099H6.136
				c-2.539,0-4.598-2.559-4.598-5.099V4.599c0-2.54,2.059-4.099,4.598-4.099h44.803c2.541,0,4.6,1.559,4.6,4.099V47.401z"/>
		</g>
	</g>
	<path fill="none" stroke="#000000" stroke-miterlimit="10" d="M14.538,13.615c-0.781,1.05-2.807,2.552-5.666,2.551
		c-3.5,0-4.917,3.833-4.917,3.833v14c0,0,0.417,3.5,3.25,3.5s4.083,0,4.083,0l-2.583,4h19.334"/>
	<path fill="none" stroke="#000000" stroke-miterlimit="10" d="M31.622,13.615c0.781,1.05,2.807,2.552,5.666,2.551
		c3.5,0,4.917,3.833,4.917,3.833v14c0,0-0.417,3.5-3.25,3.5s-4.083,0-4.083,0l2.583,4H18.121"/>
	<rect x="28.538" y="35.5" fill="#FFFFFF" stroke="#000000" stroke-miterlimit="10" width="24" height="15"/>
	<polyline fill="none" stroke="#000000" stroke-miterlimit="10" points="52.538,35.5 40.538,45.25 36.114,41.501 29.034,35.5 	"/>
	<line fill="none" stroke="#000000" stroke-miterlimit="10" x1="28.538" y1="50.5" x2="36.114" y2="41.501"/>
	<line fill="none" stroke="#000000" stroke-miterlimit="10" x1="52.538" y1="50.5" x2="44.962" y2="41.501"/>
	<rect x="14.538" y="2.5" fill="none" stroke="#000000" stroke-miterlimit="10" width="17" height="16"/>
	<line fill="none" stroke="#000000" stroke-miterlimit="10" x1="14.538" y1="18.5" x2="12.288" y2="26.5"/>
	<line fill="none" stroke="#000000" stroke-miterlimit="10" x1="31.538" y1="18.5" x2="33.788" y2="26.5"/>
	<polyline fill="none" stroke="#000000" stroke-miterlimit="10" points="11.538,33 11.538,31.5 34.538,31.5 34.538,33 	"/>
	<line fill="none" stroke="#000000" stroke-miterlimit="10" x1="11.288" y1="37.5" x2="15.122" y2="31.5"/>
	<line fill="none" stroke="#000000" stroke-miterlimit="10" x1="35.846" y1="35.502" x2="33.288" y2="31.5"/>
</g>
</svg>
