<?xml version="1.0" encoding="utf-8"?>
<!-- Generator: Adobe Illustrator 16.0.0, SVG Export Plug-In . SVG Version: 6.00 Build 0)  -->
<!DOCTYPE svg PUBLIC "-//W3C//DTD SVG 1.1//EN" "http://www.w3.org/Graphics/SVG/1.1/DTD/svg11.dtd">
<svg version="1.1" id="Layer_1" xmlns="http://www.w3.org/2000/svg" xmlns:xlink="http://www.w3.org/1999/xlink" x="0px" y="0px"
	 width="57.076px" height="82.902px" viewBox="-0.038 -0.25 57.076 82.902" enable-background="new -0.038 -0.25 57.076 82.902"
	 xml:space="preserve">
<g>
	<g enable-background="new    ">
		<path fill="#333333" d="M8.396,62.451c-0.016,0.875-0.242,1.539-0.68,1.992s-1.059,0.68-1.863,0.68
			c-0.816,0-1.451-0.274-1.904-0.823s-0.68-1.341-0.68-2.376v-2.367c0-1.031,0.229-1.824,0.686-2.379s1.09-0.832,1.898-0.832
			c0.82,0,1.443,0.224,1.869,0.671s0.652,1.124,0.68,2.03H7.225c-0.008-0.625-0.118-1.079-0.331-1.362s-0.56-0.425-1.04-0.425
			c-0.465,0-0.816,0.191-1.055,0.574s-0.357,0.951-0.357,1.705v2.385c0,0.766,0.116,1.34,0.349,1.723s0.587,0.574,1.063,0.574
			c0.473,0,0.816-0.136,1.031-0.407s0.328-0.726,0.34-1.362H8.396z"/>
		<path fill="#333333" d="M11.584,65.117c-0.715,0-1.281-0.257-1.699-0.771s-0.627-1.187-0.627-2.019v-0.926
			c0-0.844,0.207-1.531,0.621-2.063s0.953-0.797,1.617-0.797c0.703,0,1.236,0.241,1.6,0.724s0.545,1.146,0.545,1.989v0.82h-3.205
			v0.252c0,0.563,0.102,1.019,0.305,1.368s0.51,0.524,0.92,0.524c0.375,0,0.675-0.053,0.899-0.158s0.419-0.256,0.583-0.451
			l0.334,0.762c-0.191,0.23-0.446,0.412-0.765,0.545S12.018,65.117,11.584,65.117z M11.496,59.457c-0.32,0-0.572,0.164-0.756,0.492
			s-0.285,0.754-0.305,1.277h2.045v-0.24c0-0.457-0.081-0.826-0.243-1.107S11.828,59.457,11.496,59.457z"/>
		<path fill="#333333" d="M16.09,57.084v1.576h0.914v0.85H16.09v3.773c0,0.336,0.039,0.57,0.117,0.703s0.184,0.199,0.316,0.199
			c0.078,0,0.15-0.006,0.217-0.018s0.133-0.027,0.199-0.047l0.123,0.814c-0.105,0.055-0.231,0.099-0.378,0.132
			s-0.298,0.05-0.454,0.05c-0.426,0-0.752-0.144-0.979-0.431s-0.34-0.755-0.34-1.403V59.51h-0.697v-0.85h0.697v-1.576H16.09z"/>
		<path fill="#333333" d="M21.053,65c-0.039-0.145-0.072-0.282-0.1-0.413s-0.047-0.259-0.059-0.384l-0.012-0.006
			c-0.164,0.27-0.367,0.49-0.609,0.662s-0.514,0.258-0.814,0.258c-0.523,0-0.927-0.165-1.21-0.495s-0.425-0.784-0.425-1.362
			c0-0.617,0.192-1.096,0.577-1.436s0.938-0.51,1.661-0.51h0.814v-0.65c0-0.395-0.077-0.698-0.231-0.911s-0.378-0.319-0.671-0.319
			c-0.27,0-0.48,0.095-0.633,0.284s-0.229,0.437-0.229,0.741l-1.178-0.006c0-0.52,0.193-0.968,0.58-1.345s0.898-0.565,1.535-0.565
			c0.605,0,1.091,0.181,1.456,0.542s0.548,0.892,0.548,1.591v2.941c0,0.242,0.015,0.476,0.044,0.7s0.075,0.452,0.138,0.683H21.053z
			 M19.729,64.203c0.258,0,0.488-0.077,0.691-0.231s0.355-0.353,0.457-0.595v-1.324h-0.832c-0.34,0-0.6,0.115-0.779,0.346
			s-0.27,0.516-0.27,0.855c0,0.289,0.063,0.52,0.188,0.691S19.49,64.203,19.729,64.203z"/>
		<path fill="#333333" d="M25.031,62.094h-0.48V65h-1.172v-9.141h1.172v5.326h0.475l1.26-2.525h1.371l-1.705,2.859L27.873,65h-1.365
			L25.031,62.094z"/>
		<path fill="#333333" d="M34.945,62.855c0-0.41-0.103-0.741-0.308-0.993s-0.575-0.478-1.11-0.677
			c-0.789-0.25-1.387-0.569-1.793-0.958s-0.609-0.915-0.609-1.579c0-0.688,0.227-1.243,0.68-1.667s1.051-0.636,1.793-0.636
			c0.766,0,1.377,0.246,1.834,0.738s0.686,1.107,0.686,1.846h-1.178c0-0.508-0.115-0.914-0.346-1.219s-0.566-0.457-1.008-0.457
			c-0.418,0-0.736,0.128-0.955,0.384s-0.328,0.589-0.328,0.999c0,0.371,0.118,0.678,0.354,0.92s0.636,0.467,1.198,0.674
			c0.758,0.246,1.324,0.573,1.699,0.981s0.563,0.952,0.563,1.632c0,0.715-0.225,1.273-0.674,1.676s-1.055,0.604-1.816,0.604
			c-0.742,0-1.381-0.224-1.916-0.671s-0.803-1.097-0.803-1.948h1.178c0,0.602,0.139,1.039,0.416,1.313s0.652,0.41,1.125,0.41
			c0.426,0,0.752-0.121,0.979-0.363S34.945,63.285,34.945,62.855z"/>
		<path fill="#333333" d="M40.406,64.191h-0.012c-0.16,0.301-0.361,0.53-0.604,0.688s-0.523,0.237-0.844,0.237
			c-0.555,0-0.982-0.216-1.283-0.647s-0.451-1.12-0.451-2.065V58.66h1.172v3.756c0,0.664,0.068,1.127,0.205,1.389
			s0.352,0.393,0.645,0.393c0.273,0,0.5-0.065,0.68-0.196s0.324-0.321,0.434-0.571v-4.77h1.172V65h-1.037L40.406,64.191z"/>
		<path fill="#333333" d="M45.457,59.662l-0.545-0.029c-0.223,0-0.406,0.069-0.551,0.208s-0.258,0.339-0.34,0.601V65h-1.178v-6.34
			h1.078l0.076,0.885h0.018c0.125-0.316,0.284-0.563,0.478-0.738s0.423-0.264,0.688-0.264c0.074,0,0.149,0.007,0.226,0.021
			s0.14,0.03,0.19,0.05L45.457,59.662z"/>
		<path fill="#333333" d="M49.494,65c-0.039-0.145-0.072-0.282-0.1-0.413s-0.047-0.259-0.059-0.384l-0.012-0.006
			c-0.164,0.27-0.367,0.49-0.609,0.662s-0.514,0.258-0.814,0.258c-0.523,0-0.927-0.165-1.21-0.495s-0.425-0.784-0.425-1.362
			c0-0.617,0.192-1.096,0.577-1.436s0.938-0.51,1.661-0.51h0.814v-0.65c0-0.395-0.077-0.698-0.231-0.911s-0.378-0.319-0.671-0.319
			c-0.27,0-0.48,0.095-0.633,0.284s-0.229,0.437-0.229,0.741l-1.178-0.006c0-0.52,0.193-0.968,0.58-1.345s0.898-0.565,1.535-0.565
			c0.605,0,1.091,0.181,1.456,0.542s0.548,0.892,0.548,1.591v2.941c0,0.242,0.015,0.476,0.044,0.7s0.075,0.452,0.138,0.683H49.494z
			 M48.17,64.203c0.258,0,0.488-0.077,0.691-0.231s0.355-0.353,0.457-0.595v-1.324h-0.832c-0.34,0-0.6,0.115-0.779,0.346
			s-0.27,0.516-0.27,0.855c0,0.289,0.063,0.52,0.188,0.691S47.932,64.203,48.17,64.203z"/>
		<path fill="#333333" d="M53.215,57.084v1.576h0.914v0.85h-0.914v3.773c0,0.336,0.039,0.57,0.117,0.703s0.184,0.199,0.316,0.199
			c0.078,0,0.15-0.006,0.217-0.018s0.133-0.027,0.199-0.047l0.123,0.814c-0.105,0.055-0.231,0.099-0.378,0.132
			s-0.298,0.05-0.454,0.05c-0.426,0-0.752-0.144-0.979-0.431s-0.34-0.755-0.34-1.403V59.51H51.34v-0.85h0.697v-1.576H53.215z"/>
	</g>
	<g enable-background="new    ">
		<path fill="#333333" d="M1.942,76.037V79.4H0.765v-8.531h2.689c0.773,0,1.373,0.233,1.799,0.7s0.639,1.095,0.639,1.884
			c0,0.793-0.212,1.422-0.636,1.887s-1.024,0.697-1.802,0.697H1.942z M1.942,75.123h1.512c0.426,0,0.742-0.154,0.949-0.463
			s0.311-0.707,0.311-1.195c0-0.492-0.104-0.896-0.311-1.21s-0.523-0.472-0.949-0.472H1.942V75.123z"/>
		<path fill="#333333" d="M9.062,79.517c-0.715,0-1.281-0.257-1.699-0.771s-0.627-1.187-0.627-2.019v-0.926
			c0-0.844,0.207-1.531,0.621-2.063s0.953-0.797,1.617-0.797c0.703,0,1.236,0.241,1.6,0.724s0.545,1.146,0.545,1.989v0.82H7.913
			v0.252c0,0.563,0.102,1.019,0.305,1.368s0.51,0.524,0.92,0.524c0.375,0,0.675-0.053,0.899-0.158s0.419-0.256,0.583-0.451
			l0.334,0.762c-0.191,0.23-0.446,0.412-0.765,0.545S9.495,79.517,9.062,79.517z M8.974,73.857c-0.32,0-0.572,0.164-0.756,0.492
			s-0.285,0.754-0.305,1.277h2.045v-0.24c0-0.457-0.081-0.826-0.243-1.107S9.306,73.857,8.974,73.857z"/>
		<path fill="#333333" d="M14.78,74.062l-0.545-0.029c-0.223,0-0.406,0.069-0.551,0.208s-0.258,0.339-0.34,0.601V79.4h-1.178v-6.34
			h1.078l0.076,0.885h0.018c0.125-0.316,0.284-0.563,0.478-0.738s0.423-0.264,0.688-0.264c0.074,0,0.149,0.007,0.226,0.021
			s0.14,0.03,0.19,0.05L14.78,74.062z"/>
		<path fill="#333333" d="M16.831,73.06l0.064,0.779l0.018,0.006c0.16-0.289,0.362-0.512,0.606-0.668s0.536-0.234,0.876-0.234
			c0.328,0,0.608,0.089,0.841,0.267s0.411,0.454,0.536,0.829c0.16-0.348,0.367-0.617,0.621-0.809s0.559-0.287,0.914-0.287
			c0.52,0,0.925,0.213,1.216,0.639s0.437,1.09,0.437,1.992V79.4h-1.178v-3.832c0-0.641-0.072-1.084-0.217-1.33
			s-0.363-0.369-0.656-0.369c-0.246,0.004-0.45,0.098-0.612,0.281s-0.284,0.428-0.366,0.732c0.004,0.074,0.008,0.148,0.012,0.223
			s0.006,0.15,0.006,0.229V79.4h-1.178v-3.861c0-0.609-0.072-1.04-0.217-1.292s-0.365-0.378-0.662-0.378
			c-0.227,0-0.417,0.064-0.571,0.193s-0.282,0.311-0.384,0.545V79.4h-1.178v-6.34H16.831z"/>
		<path fill="#333333" d="M24.073,75.832c0-0.859,0.205-1.556,0.615-2.089s0.986-0.8,1.729-0.8c0.746,0,1.324,0.267,1.734,0.8
			s0.615,1.229,0.615,2.089v0.809c0,0.867-0.204,1.563-0.612,2.089s-0.983,0.788-1.726,0.788c-0.75,0-1.33-0.264-1.74-0.791
			s-0.615-1.223-0.615-2.086V75.832z M25.251,76.64c0,0.594,0.094,1.072,0.281,1.436s0.486,0.545,0.896,0.545
			c0.398,0,0.692-0.183,0.882-0.548s0.284-0.843,0.284-1.433v-0.809c0-0.586-0.096-1.062-0.287-1.427s-0.488-0.548-0.891-0.548
			c-0.406,0-0.702,0.183-0.888,0.548s-0.278,0.841-0.278,1.427V76.64z"/>
		<path fill="#333333" d="M31.052,73.81l0.018,0.006c0.164-0.273,0.364-0.487,0.601-0.642s0.503-0.231,0.8-0.231
			c0.551,0,0.975,0.206,1.271,0.618s0.445,1.065,0.445,1.96V79.4h-1.172V75.51c0-0.598-0.077-1.021-0.231-1.269
			s-0.394-0.372-0.718-0.372c-0.219,0-0.413,0.065-0.583,0.196s-0.313,0.313-0.431,0.548V79.4h-1.178V70.26h1.178V73.81z"/>
		<path fill="#333333" d="M35.288,75.832c0-0.859,0.205-1.556,0.615-2.089s0.986-0.8,1.729-0.8c0.746,0,1.324,0.267,1.734,0.8
			s0.615,1.229,0.615,2.089v0.809c0,0.867-0.204,1.563-0.612,2.089s-0.983,0.788-1.726,0.788c-0.75,0-1.33-0.264-1.74-0.791
			s-0.615-1.223-0.615-2.086V75.832z M36.466,76.64c0,0.594,0.094,1.072,0.281,1.436s0.486,0.545,0.896,0.545
			c0.398,0,0.692-0.183,0.882-0.548s0.284-0.843,0.284-1.433v-0.809c0-0.586-0.096-1.062-0.287-1.427s-0.488-0.548-0.891-0.548
			c-0.406,0-0.702,0.183-0.888,0.548s-0.278,0.841-0.278,1.427V76.64z"/>
		<path fill="#333333" d="M42.173,73.06l0.064,0.855h0.018c0.16-0.309,0.364-0.548,0.612-0.718s0.532-0.255,0.853-0.255
			c0.539,0,0.954,0.198,1.245,0.595s0.437,1.03,0.437,1.901V79.4h-1.178v-3.949c0-0.59-0.075-1.001-0.226-1.233
			s-0.39-0.349-0.718-0.349c-0.223,0-0.418,0.07-0.586,0.211s-0.309,0.336-0.422,0.586V79.4h-1.178v-6.34H42.173z"/>
		<path fill="#333333" d="M49.772,79.4c-0.039-0.145-0.072-0.282-0.1-0.413s-0.047-0.259-0.059-0.384l-0.012-0.006
			c-0.164,0.27-0.367,0.49-0.609,0.662s-0.514,0.258-0.814,0.258c-0.523,0-0.927-0.165-1.21-0.495s-0.425-0.784-0.425-1.362
			c0-0.617,0.192-1.096,0.577-1.436s0.938-0.51,1.661-0.51h0.814v-0.65c0-0.395-0.077-0.698-0.231-0.911s-0.378-0.319-0.671-0.319
			c-0.27,0-0.48,0.095-0.633,0.284s-0.229,0.437-0.229,0.741l-1.178-0.006c0-0.52,0.193-0.968,0.58-1.345s0.898-0.565,1.535-0.565
			c0.605,0,1.091,0.181,1.456,0.542s0.548,0.892,0.548,1.591v2.941c0,0.242,0.015,0.476,0.044,0.7s0.075,0.452,0.138,0.683H49.772z
			 M48.448,78.603c0.258,0,0.488-0.077,0.691-0.231s0.355-0.353,0.457-0.595v-1.324h-0.832c-0.34,0-0.6,0.115-0.779,0.346
			s-0.27,0.516-0.27,0.855c0,0.289,0.063,0.52,0.188,0.691S48.21,78.603,48.448,78.603z"/>
		<path fill="#333333" d="M53.159,73.06l0.064,0.855h0.018c0.16-0.309,0.364-0.548,0.612-0.718s0.532-0.255,0.853-0.255
			c0.539,0,0.954,0.198,1.245,0.595s0.437,1.03,0.437,1.901V79.4H55.21v-3.949c0-0.59-0.075-1.001-0.226-1.233
			s-0.39-0.349-0.718-0.349c-0.223,0-0.418,0.07-0.586,0.211s-0.309,0.336-0.422,0.586V79.4h-1.178v-6.34H53.159z"/>
	</g>
	<g>
		<path fill="none" stroke="#333333" stroke-width="1.5" stroke-miterlimit="10" d="M55.538,47.401c0,2.54-2.059,5.099-4.6,5.099
			H6.136c-2.539,0-4.598-2.559-4.598-5.099V4.599c0-2.54,2.059-4.1,4.598-4.1h44.802c2.541,0,4.601,1.56,4.601,4.1L55.538,47.401
			L55.538,47.401z"/>
	</g>
	<path fill="none" stroke="#333333" stroke-width="1.5" stroke-miterlimit="10" d="M14.538,13.615
		c-0.781,1.05-2.807,2.552-5.666,2.551c-3.5,0-4.917,3.833-4.917,3.833v14c0,0,0.417,3.5,3.25,3.5s4.083,0,4.083,0l-2.583,4h19.334"
		/>
	<path fill="none" stroke="#333333" stroke-width="1.5" stroke-miterlimit="10" d="M31.622,13.615
		c0.781,1.05,2.807,2.552,5.666,2.551c3.5,0,4.917,3.833,4.917,3.833v14c0,0-0.417,3.5-3.25,3.5s-4.083,0-4.083,0l2.583,4H18.121"/>
	<rect x="28.538" y="35.5" fill="#FFFFFF" stroke="#333333" stroke-width="1.5" stroke-miterlimit="10" width="24" height="15"/>
	<polyline fill="none" stroke="#333333" stroke-width="1.5" stroke-miterlimit="10" points="52.538,35.5 40.538,45.25 
		36.114,41.501 29.034,35.5 	"/>
	<line fill="none" stroke="#333333" stroke-width="1.5" stroke-miterlimit="10" x1="28.538" y1="50.5" x2="36.114" y2="41.501"/>
	<line fill="none" stroke="#333333" stroke-width="1.5" stroke-miterlimit="10" x1="52.538" y1="50.5" x2="44.962" y2="41.501"/>
	<rect x="14.538" y="2.5" fill="none" stroke="#333333" stroke-width="1.5" stroke-miterlimit="10" width="17" height="16"/>
	<line fill="none" stroke="#333333" stroke-width="1.5" stroke-miterlimit="10" x1="14.538" y1="18.5" x2="12.288" y2="26.5"/>
	<line fill="none" stroke="#333333" stroke-width="1.5" stroke-miterlimit="10" x1="31.538" y1="18.5" x2="33.788" y2="26.5"/>
	<polyline fill="none" stroke="#333333" stroke-width="1.5" stroke-miterlimit="10" points="11.538,33 11.538,31.5 34.538,31.5 
		34.538,33 	"/>
	<line fill="none" stroke="#333333" stroke-width="1.5" stroke-miterlimit="10" x1="11.288" y1="37.5" x2="15.122" y2="31.5"/>
	<line fill="none" stroke="#333333" stroke-width="1.5" stroke-miterlimit="10" x1="35.847" y1="35.502" x2="33.288" y2="31.5"/>
</g>
</svg>
