<?xml version="1.0" encoding="utf-8"?>
<!-- Generator: Adobe Illustrator 16.0.0, SVG Export Plug-In . SVG Version: 6.00 Build 0)  -->
<!DOCTYPE svg PUBLIC "-//W3C//DTD SVG 1.1//EN" "http://www.w3.org/Graphics/SVG/1.1/DTD/svg11.dtd">
<svg version="1.1" id="Layer_1" xmlns="http://www.w3.org/2000/svg" xmlns:xlink="http://www.w3.org/1999/xlink" x="0px" y="0px"
	 width="55.501px" height="79.773px" viewBox="-0.25 -0.25 55.501 79.773" enable-background="new -0.25 -0.25 55.501 79.773"
	 xml:space="preserve">
<g>
	<g enable-background="new    ">
		<path fill="#333333" d="M11.261,62.855c0-0.41-0.103-0.741-0.308-0.993s-0.575-0.478-1.11-0.677
			c-0.789-0.25-1.387-0.569-1.793-0.958s-0.609-0.915-0.609-1.579c0-0.688,0.227-1.243,0.68-1.667s1.051-0.636,1.793-0.636
			c0.766,0,1.377,0.246,1.834,0.738s0.686,1.107,0.686,1.846h-1.178c0-0.508-0.115-0.914-0.346-1.219s-0.566-0.457-1.008-0.457
			c-0.418,0-0.736,0.128-0.955,0.384s-0.328,0.589-0.328,0.999c0,0.371,0.118,0.678,0.354,0.92s0.636,0.467,1.198,0.674
			c0.758,0.246,1.324,0.573,1.699,0.981s0.563,0.952,0.563,1.632c0,0.715-0.225,1.273-0.674,1.676s-1.055,0.604-1.816,0.604
			c-0.742,0-1.381-0.224-1.916-0.671s-0.803-1.097-0.803-1.948h1.178c0,0.602,0.139,1.039,0.416,1.313s0.652,0.41,1.125,0.41
			c0.426,0,0.752-0.121,0.979-0.363S11.261,63.285,11.261,62.855z"/>
		<path fill="#333333" d="M15.685,65.117c-0.715,0-1.281-0.257-1.699-0.771s-0.627-1.187-0.627-2.019v-0.926
			c0-0.844,0.207-1.531,0.621-2.063s0.953-0.797,1.617-0.797c0.703,0,1.236,0.241,1.6,0.724s0.545,1.146,0.545,1.989v0.82h-3.205
			v0.252c0,0.563,0.102,1.019,0.305,1.368s0.51,0.524,0.92,0.524c0.375,0,0.675-0.053,0.899-0.158s0.419-0.256,0.583-0.451
			l0.334,0.762c-0.191,0.23-0.446,0.412-0.765,0.545S16.119,65.117,15.685,65.117z M15.597,59.457c-0.32,0-0.572,0.164-0.756,0.492
			s-0.285,0.754-0.305,1.277h2.045v-0.24c0-0.457-0.081-0.826-0.243-1.107S15.929,59.457,15.597,59.457z"/>
		<path fill="#333333" d="M19.863,58.66l0.064,0.779l0.018,0.006c0.16-0.289,0.362-0.512,0.606-0.668s0.536-0.234,0.876-0.234
			c0.328,0,0.608,0.089,0.841,0.267s0.411,0.454,0.536,0.829c0.16-0.348,0.367-0.617,0.621-0.809s0.559-0.287,0.914-0.287
			c0.52,0,0.925,0.213,1.216,0.639s0.437,1.09,0.437,1.992V65h-1.178v-3.832c0-0.641-0.072-1.084-0.217-1.33
			s-0.363-0.369-0.656-0.369c-0.246,0.004-0.45,0.098-0.612,0.281s-0.284,0.428-0.366,0.732c0.004,0.074,0.008,0.148,0.012,0.223
			s0.006,0.15,0.006,0.229V65h-1.178v-3.861c0-0.609-0.072-1.04-0.217-1.292s-0.365-0.378-0.662-0.378
			c-0.227,0-0.417,0.064-0.571,0.193s-0.282,0.311-0.384,0.545V65h-1.178v-6.34H19.863z"/>
		<path fill="#333333" d="M30.375,65c-0.039-0.145-0.072-0.282-0.1-0.413s-0.047-0.259-0.059-0.384l-0.012-0.006
			c-0.164,0.27-0.367,0.49-0.609,0.662s-0.514,0.258-0.814,0.258c-0.523,0-0.927-0.165-1.21-0.495s-0.425-0.784-0.425-1.362
			c0-0.617,0.192-1.096,0.577-1.436c0.384-0.34,0.939-0.51,1.662-0.51h0.814v-0.65c0-0.395-0.078-0.698-0.232-0.911
			s-0.377-0.319-0.67-0.319c-0.27,0-0.48,0.095-0.633,0.284s-0.229,0.437-0.229,0.741l-1.178-0.006c0-0.52,0.193-0.968,0.58-1.345
			c0.387-0.377,0.899-0.565,1.536-0.565c0.605,0,1.09,0.181,1.455,0.542s0.549,0.892,0.549,1.591v2.941
			c0,0.242,0.014,0.476,0.043,0.7s0.076,0.452,0.139,0.683H30.375z M29.051,64.203c0.258,0,0.488-0.077,0.691-0.231
			s0.355-0.353,0.457-0.595v-1.324h-0.832c-0.34,0-0.6,0.115-0.779,0.346s-0.27,0.516-0.27,0.855c0,0.289,0.063,0.52,0.188,0.691
			S28.813,64.203,29.051,64.203z"/>
		<path fill="#333333" d="M34.354,62.094h-0.48V65h-1.172v-9.141h1.172v5.326h0.475l1.26-2.525h1.371l-1.705,2.859L37.195,65H35.83
			L34.354,62.094z"/>
		<path fill="#333333" d="M40.963,65c-0.039-0.145-0.072-0.282-0.1-0.413s-0.047-0.259-0.059-0.384l-0.012-0.006
			c-0.164,0.27-0.367,0.49-0.609,0.662s-0.514,0.258-0.814,0.258c-0.523,0-0.928-0.165-1.211-0.495s-0.424-0.784-0.424-1.362
			c0-0.617,0.191-1.096,0.576-1.436s0.939-0.51,1.662-0.51h0.814v-0.65c0-0.395-0.078-0.698-0.232-0.911s-0.377-0.319-0.67-0.319
			c-0.27,0-0.48,0.095-0.633,0.284s-0.229,0.437-0.229,0.741l-1.178-0.006c0-0.52,0.193-0.968,0.58-1.345s0.898-0.565,1.535-0.565
			c0.605,0,1.09,0.181,1.455,0.542s0.549,0.892,0.549,1.591v2.941c0,0.242,0.014,0.476,0.043,0.7s0.076,0.452,0.139,0.683H40.963z
			 M39.639,64.203c0.258,0,0.488-0.077,0.691-0.231s0.355-0.353,0.457-0.595v-1.324h-0.832c-0.34,0-0.6,0.115-0.779,0.346
			s-0.27,0.516-0.27,0.855c0,0.289,0.063,0.52,0.188,0.691S39.4,64.203,39.639,64.203z"/>
		<path fill="#333333" d="M44.35,58.66l0.064,0.855h0.018c0.16-0.309,0.363-0.548,0.611-0.718s0.533-0.255,0.854-0.255
			c0.539,0,0.953,0.198,1.244,0.595s0.438,1.03,0.438,1.901V65H46.4v-3.949c0-0.59-0.076-1.001-0.227-1.233
			s-0.389-0.349-0.717-0.349c-0.223,0-0.418,0.07-0.586,0.211s-0.309,0.336-0.422,0.586V65h-1.178v-6.34H44.35z"/>
	</g>
	<g enable-background="new    ">
		<path fill="#333333" d="M14.915,77.256c0-0.41-0.103-0.741-0.308-0.993s-0.575-0.478-1.11-0.677
			c-0.789-0.25-1.387-0.569-1.793-0.958s-0.609-0.915-0.609-1.579c0-0.688,0.227-1.243,0.68-1.667s1.051-0.636,1.793-0.636
			c0.766,0,1.377,0.246,1.834,0.738s0.686,1.107,0.686,1.846h-1.178c0-0.508-0.115-0.914-0.346-1.219s-0.566-0.457-1.008-0.457
			c-0.418,0-0.736,0.128-0.955,0.384s-0.328,0.589-0.328,0.999c0,0.371,0.118,0.678,0.354,0.92s0.636,0.467,1.198,0.674
			c0.758,0.246,1.324,0.573,1.699,0.981s0.563,0.952,0.563,1.632c0,0.715-0.225,1.273-0.674,1.676s-1.055,0.604-1.816,0.604
			c-0.742,0-1.381-0.224-1.916-0.671s-0.803-1.097-0.803-1.948h1.178c0,0.602,0.139,1.039,0.416,1.313s0.652,0.41,1.125,0.41
			c0.426,0,0.752-0.121,0.979-0.363S14.915,77.685,14.915,77.256z"/>
		<path fill="#333333" d="M18.829,70.869l1.863,6.984h0.018l1.863-6.984h1.518V79.4h-1.166v-3.275l0.111-3.252l-0.018-0.006
			L21.09,79.4h-0.779l-1.922-6.533l-0.018,0.006l0.111,3.252V79.4h-1.166v-8.531H18.829z"/>
		<path fill="#333333" d="M31.01,76.312c0,1.031-0.246,1.824-0.738,2.379s-1.166,0.832-2.021,0.832
			c-0.843,0-1.504-0.277-1.983-0.832s-0.718-1.348-0.718-2.379v-2.344c0-1.027,0.239-1.821,0.718-2.382s1.138-0.841,1.977-0.841
			c0.855,0,1.531,0.28,2.025,0.841s0.74,1.354,0.74,2.382V76.312z M29.832,73.951c0-0.754-0.135-1.32-0.404-1.699
			s-0.664-0.568-1.184-0.568c-0.5,0-0.877,0.189-1.133,0.568s-0.384,0.945-0.384,1.699v2.361c0,0.766,0.128,1.338,0.384,1.717
			s0.636,0.568,1.139,0.568c0.52,0,0.914-0.189,1.182-0.568s0.4-0.951,0.4-1.717V73.951z"/>
		<path fill="#333333" d="M34.42,75.574h-0.75V79.4h-1.178v-8.531h1.178v3.75h0.65l2.104-3.75h1.4l-2.52,4.061l2.707,4.471h-1.436
			L34.42,75.574z"/>
		<path fill="#333333" d="M43.924,70.869v5.912c0,0.902-0.238,1.585-0.715,2.048s-1.113,0.694-1.91,0.694
			c-0.785,0-1.41-0.231-1.877-0.694s-0.701-1.146-0.701-2.048v-5.912h1.16v5.912c0,0.621,0.127,1.083,0.379,1.386
			s0.598,0.454,1.039,0.454c0.461,0,0.818-0.146,1.072-0.437s0.381-0.759,0.381-1.403v-5.912H43.924z"/>
	</g>
	<g>
		<g>
			<path fill="none" stroke="#333333" stroke-width="1.5" stroke-miterlimit="10" d="M54.5,47.401c0,2.54-1.928,5.099-4.469,5.099
				H5.229C2.69,52.5,0.5,49.941,0.5,47.401V4.599c0-2.54,2.189-4.1,4.729-4.1h44.803c2.541,0,4.469,1.56,4.469,4.1L54.5,47.401
				L54.5,47.401z"/>
		</g>
		<polyline fill="none" stroke="#333333" stroke-width="1.5" stroke-miterlimit="10" points="24.5,13 24.5,29.5 39,29.5 
			44.375,41.5 49.25,40 		"/>
		<path fill="none" stroke="#333333" stroke-width="1.5" stroke-miterlimit="10" d="M41.968,36.077
			C40.75,42.025,35.486,46.5,29.18,46.5c-7.211,0-13.055-5.844-13.055-13.054c0-5.562,3.477-10.309,8.373-12.19"/>
		<line fill="none" stroke="#333333" stroke-width="1.5" stroke-miterlimit="10" x1="35" y1="23.5" x2="24" y2="23.5"/>
		<circle fill="none" stroke="#333333" stroke-width="1.5" stroke-miterlimit="10" cx="24.625" cy="9.625" r="3.375"/>
	</g>
</g>
</svg>
