<?xml version="1.0" encoding="utf-8"?>
<!-- Generator: Adobe Illustrator 16.0.0, SVG Export Plug-In . SVG Version: 6.00 Build 0)  -->
<!DOCTYPE svg PUBLIC "-//W3C//DTD SVG 1.1//EN" "http://www.w3.org/Graphics/SVG/1.1/DTD/svg11.dtd">
<svg version="1.1" id="Layer_1" xmlns="http://www.w3.org/2000/svg" xmlns:xlink="http://www.w3.org/1999/xlink" x="0px" y="0px"
	 width="55px" height="85.652px" viewBox="0 0 55 85.652" enable-background="new 0 0 55 85.652" xml:space="preserve">
<g>
	<text transform="matrix(1 0 0 1 6.814 68)"><tspan x="0" y="0" font-family="'RobotoCondensed-Regular'" font-size="12">Semakan</tspan><tspan x="-2.44" y="14.4" font-family="'RobotoCondensed-Regular'" font-size="12">E-Bantuan</tspan></text>
	<g>
		<path fill="none" stroke="#000000" stroke-miterlimit="10" d="M54.5,47.901c0,2.54-2.059,4.599-4.599,4.599H5.099
			c-2.54,0-4.599-2.059-4.599-4.599V5.099C0.5,2.559,2.559,0.5,5.099,0.5h44.803c2.54,0,4.599,2.059,4.599,4.599V47.901z"/>
		<circle fill="none" stroke="#000000" stroke-miterlimit="10" cx="10.729" cy="28.438" r="5.688"/>
		<circle fill="none" stroke="#000000" stroke-miterlimit="10" cx="40.729" cy="22.438" r="5.688"/>
		<path fill="none" stroke="#000000" stroke-miterlimit="10" d="M5.563,52.219c0,0-2.063-0.906-2.063-3.906s0-9.813,0-9.813
			s0.042-2,3.229-2h9.313l6.813,9H30.5v3h-8.458l-3.875-5H16.5V52"/>
		<path d="M33,44H23v-8h10V44z M24,43h8v-6h-8V43z"/>
		<g>
			<polygon points="23,42 21,42 21,34 31,34 31,37 30,37 30,35 22,35 22,41 23,41 			"/>
		</g>
		<path fill="none" stroke="#000000" stroke-miterlimit="10" d="M38.064,46.287c0.209,0.9,0.379,1.903,0.477,2.38
			c0.5,2.417,2.5,2.833,2.5,2.833h5.375c0,0,1.959,0.041,3.875-0.541c1.918-0.584,1.418-2.917,1.418-2.917s-2-13.896-2.418-15.729
			c-0.416-1.833-2.25-1.813-2.25-1.813h-11l-4.525,4.422"/>
		<path fill="none" stroke="#000000" stroke-miterlimit="10" d="M32.541,40.031l3.168-3.531c0,0,0.754,3.074,1.498,6.17"/>
		<polyline fill="none" stroke="#000000" stroke-miterlimit="10" points="47.666,30.646 37.114,43.011 32.5,44.5 32.5,47.5 
			38.043,46.287 49.617,33.89 		"/>
		<polygon points="23,44 21,42 21.619,41.225 23.619,43.225 		"/>
		<polygon points="23.042,37.25 21.042,35.25 21.661,34.475 23.661,36.475 		"/>
		<polygon points="32.381,36.775 30.381,34.775 31,34 33,36 		"/>
	</g>
</g>
</svg>
