<?xml version="1.0" encoding="utf-8"?>
<!-- Generator: Adobe Illustrator 16.0.0, SVG Export Plug-In . SVG Version: 6.00 Build 0)  -->
<!DOCTYPE svg PUBLIC "-//W3C//DTD SVG 1.1//EN" "http://www.w3.org/Graphics/SVG/1.1/DTD/svg11.dtd">
<svg version="1.1" id="Layer_1" xmlns="http://www.w3.org/2000/svg" xmlns:xlink="http://www.w3.org/1999/xlink" x="0px" y="0px"
	 width="55.501px" height="82.902px" viewBox="-0.25 -0.25 55.501 82.902" enable-background="new -0.25 -0.25 55.501 82.902"
	 xml:space="preserve">
<g>
	<g enable-background="new    ">
		<path fill="#333333" d="M11.303,62.855c0-0.41-0.103-0.741-0.308-0.993s-0.575-0.478-1.11-0.677
			c-0.789-0.25-1.387-0.569-1.793-0.958s-0.609-0.915-0.609-1.579c0-0.688,0.227-1.243,0.68-1.667s1.051-0.636,1.793-0.636
			c0.766,0,1.377,0.246,1.834,0.738s0.686,1.107,0.686,1.846h-1.178c0-0.508-0.115-0.914-0.346-1.219s-0.566-0.457-1.008-0.457
			c-0.418,0-0.736,0.128-0.955,0.384S8.66,58.226,8.66,58.636c0,0.371,0.118,0.678,0.354,0.92s0.636,0.467,1.198,0.674
			c0.758,0.246,1.324,0.573,1.699,0.981s0.563,0.952,0.563,1.632c0,0.715-0.225,1.273-0.674,1.676s-1.055,0.604-1.816,0.604
			c-0.742,0-1.381-0.224-1.916-0.671s-0.803-1.097-0.803-1.948h1.178c0,0.602,0.139,1.039,0.416,1.313s0.652,0.41,1.125,0.41
			c0.426,0,0.752-0.121,0.979-0.363S11.303,63.285,11.303,62.855z"/>
		<path fill="#333333" d="M15.727,65.117c-0.715,0-1.281-0.257-1.699-0.771S13.4,63.16,13.4,62.328v-0.926
			c0-0.844,0.207-1.531,0.621-2.063s0.953-0.797,1.617-0.797c0.703,0,1.236,0.241,1.6,0.724s0.545,1.146,0.545,1.989v0.82h-3.205
			v0.252c0,0.563,0.102,1.019,0.305,1.368s0.51,0.524,0.92,0.524c0.375,0,0.675-0.053,0.899-0.158s0.419-0.256,0.583-0.451
			l0.334,0.762c-0.191,0.23-0.446,0.412-0.765,0.545S16.16,65.117,15.727,65.117z M15.639,59.457c-0.32,0-0.572,0.164-0.756,0.492
			s-0.285,0.754-0.305,1.277h2.045v-0.24c0-0.457-0.081-0.826-0.243-1.107S15.971,59.457,15.639,59.457z"/>
		<path fill="#333333" d="M19.904,58.66l0.064,0.779l0.018,0.006c0.16-0.289,0.362-0.512,0.606-0.668s0.536-0.234,0.876-0.234
			c0.328,0,0.608,0.089,0.841,0.267s0.411,0.454,0.536,0.829c0.16-0.348,0.367-0.617,0.621-0.809s0.559-0.287,0.914-0.287
			c0.52,0,0.925,0.213,1.216,0.639s0.437,1.09,0.437,1.992V65h-1.178v-3.832c0-0.641-0.072-1.084-0.217-1.33
			s-0.363-0.369-0.656-0.369c-0.246,0.004-0.45,0.098-0.612,0.281s-0.284,0.428-0.366,0.732c0.004,0.074,0.008,0.148,0.012,0.223
			s0.006,0.15,0.006,0.229V65h-1.178v-3.861c0-0.609-0.072-1.04-0.217-1.292s-0.365-0.378-0.662-0.378
			c-0.227,0-0.417,0.064-0.571,0.193s-0.282,0.311-0.384,0.545V65h-1.178v-6.34H19.904z"/>
		<path fill="#333333" d="M30.416,65c-0.039-0.145-0.072-0.282-0.1-0.413s-0.047-0.259-0.059-0.384l-0.012-0.006
			c-0.164,0.27-0.367,0.49-0.609,0.662s-0.514,0.258-0.814,0.258c-0.523,0-0.927-0.165-1.21-0.495s-0.425-0.784-0.425-1.362
			c0-0.617,0.192-1.096,0.577-1.436s0.938-0.51,1.661-0.51h0.814v-0.65c0-0.395-0.077-0.698-0.231-0.911s-0.378-0.319-0.671-0.319
			c-0.27,0-0.48,0.095-0.633,0.284s-0.229,0.437-0.229,0.741l-1.178-0.006c0-0.52,0.193-0.968,0.58-1.345s0.898-0.565,1.535-0.565
			c0.605,0,1.091,0.181,1.456,0.542s0.548,0.892,0.548,1.591v2.941c0,0.242,0.015,0.476,0.044,0.7S31.537,64.769,31.6,65H30.416z
			 M29.092,64.203c0.258,0,0.488-0.077,0.691-0.231s0.355-0.353,0.457-0.595v-1.324h-0.832c-0.34,0-0.6,0.115-0.779,0.346
			s-0.27,0.516-0.27,0.855c0,0.289,0.063,0.52,0.188,0.691S28.854,64.203,29.092,64.203z"/>
		<path fill="#333333" d="M34.395,62.094h-0.48V65h-1.172v-9.141h1.172v5.326h0.475l1.26-2.525h1.371l-1.705,2.859L37.236,65h-1.365
			L34.395,62.094z"/>
		<path fill="#333333" d="M41.004,65c-0.039-0.145-0.072-0.282-0.1-0.413s-0.047-0.259-0.059-0.384l-0.012-0.006
			c-0.164,0.27-0.367,0.49-0.609,0.662s-0.514,0.258-0.814,0.258c-0.523,0-0.927-0.165-1.21-0.495s-0.425-0.784-0.425-1.362
			c0-0.617,0.192-1.096,0.577-1.436s0.938-0.51,1.661-0.51h0.814v-0.65c0-0.395-0.077-0.698-0.231-0.911s-0.378-0.319-0.671-0.319
			c-0.27,0-0.48,0.095-0.633,0.284s-0.229,0.437-0.229,0.741l-1.178-0.006c0-0.52,0.193-0.968,0.58-1.345s0.898-0.565,1.535-0.565
			c0.605,0,1.091,0.181,1.456,0.542s0.548,0.892,0.548,1.591v2.941c0,0.242,0.015,0.476,0.044,0.7s0.075,0.452,0.138,0.683H41.004z
			 M39.68,64.203c0.258,0,0.488-0.077,0.691-0.231s0.355-0.353,0.457-0.595v-1.324h-0.832c-0.34,0-0.6,0.115-0.779,0.346
			s-0.27,0.516-0.27,0.855c0,0.289,0.063,0.52,0.188,0.691S39.441,64.203,39.68,64.203z"/>
		<path fill="#333333" d="M44.391,58.66l0.064,0.855h0.018c0.16-0.309,0.364-0.548,0.612-0.718s0.532-0.255,0.853-0.255
			c0.539,0,0.954,0.198,1.245,0.595s0.437,1.03,0.437,1.901V65h-1.178v-3.949c0-0.59-0.075-1.001-0.226-1.233
			s-0.39-0.349-0.718-0.349c-0.223,0-0.418,0.07-0.586,0.211s-0.309,0.336-0.422,0.586V65h-1.178v-6.34H44.391z"/>
	</g>
	<g enable-background="new    ">
		<path fill="#333333" d="M9.331,75.439H6.354v3.059h3.457V79.4H5.177v-8.531h4.605v0.914H6.354v2.748h2.977V75.439z"/>
		<path fill="#333333" d="M13.034,76.166h-2.502v-0.902h2.502V76.166z"/>
		<path fill="#333333" d="M14.306,79.4v-8.531h2.309c0.777,0,1.374,0.188,1.79,0.563s0.624,0.953,0.624,1.734
			c0,0.414-0.095,0.773-0.284,1.078s-0.456,0.527-0.8,0.668v0.018c0.441,0.098,0.776,0.334,1.005,0.709s0.343,0.824,0.343,1.348
			c0,0.805-0.204,1.408-0.612,1.811S17.687,79.4,16.925,79.4H14.306z M15.483,74.566h1.289c0.348-0.012,0.615-0.134,0.803-0.366
			s0.281-0.569,0.281-1.011c0-0.48-0.103-0.835-0.308-1.063s-0.517-0.343-0.935-0.343h-1.131V74.566z M15.483,75.422v3.076h1.441
			c0.391,0,0.688-0.129,0.891-0.387s0.305-0.631,0.305-1.119c0-0.492-0.088-0.877-0.264-1.154s-0.451-0.416-0.826-0.416H15.483z"/>
		<path fill="#333333" d="M23.546,79.4c-0.039-0.145-0.072-0.282-0.1-0.413s-0.047-0.259-0.059-0.384l-0.012-0.006
			c-0.164,0.27-0.367,0.49-0.609,0.662s-0.514,0.258-0.814,0.258c-0.523,0-0.927-0.165-1.21-0.495s-0.425-0.784-0.425-1.362
			c0-0.617,0.192-1.096,0.577-1.436s0.938-0.51,1.661-0.51h0.814v-0.65c0-0.395-0.077-0.698-0.231-0.911s-0.378-0.319-0.671-0.319
			c-0.27,0-0.48,0.095-0.633,0.284s-0.229,0.437-0.229,0.741l-1.178-0.006c0-0.52,0.193-0.968,0.58-1.345s0.898-0.565,1.535-0.565
			c0.605,0,1.091,0.181,1.456,0.542s0.548,0.892,0.548,1.591v2.941c0,0.242,0.015,0.476,0.044,0.7s0.075,0.452,0.138,0.683H23.546z
			 M22.222,78.603c0.258,0,0.488-0.077,0.691-0.231s0.355-0.353,0.457-0.595v-1.324h-0.832c-0.34,0-0.6,0.115-0.779,0.346
			s-0.27,0.516-0.27,0.855c0,0.289,0.063,0.52,0.188,0.691S21.983,78.603,22.222,78.603z"/>
		<path fill="#333333" d="M26.933,73.06l0.064,0.855h0.018c0.16-0.309,0.364-0.548,0.612-0.718s0.532-0.255,0.853-0.255
			c0.539,0,0.954,0.198,1.245,0.595s0.437,1.03,0.437,1.901V79.4h-1.178v-3.949c0-0.59-0.075-1.001-0.226-1.233
			s-0.39-0.349-0.718-0.349c-0.223,0-0.418,0.07-0.586,0.211s-0.309,0.336-0.422,0.586V79.4h-1.178v-6.34H26.933z"/>
		<path fill="#333333" d="M32.874,71.484v1.576h0.914v0.85h-0.914v3.773c0,0.336,0.039,0.57,0.117,0.703s0.184,0.199,0.316,0.199
			c0.078,0,0.15-0.006,0.217-0.018s0.133-0.027,0.199-0.047l0.123,0.814c-0.105,0.055-0.231,0.099-0.378,0.132
			s-0.298,0.05-0.454,0.05c-0.426,0-0.752-0.144-0.979-0.431s-0.34-0.755-0.34-1.403V73.91h-0.697v-0.85h0.697v-1.576H32.874z"/>
		<path fill="#333333" d="M37.948,78.592h-0.012c-0.16,0.301-0.361,0.53-0.604,0.688s-0.523,0.237-0.844,0.237
			c-0.555,0-0.982-0.216-1.283-0.647s-0.451-1.12-0.451-2.065V73.06h1.172v3.756c0,0.664,0.068,1.127,0.205,1.389
			s0.352,0.393,0.645,0.393c0.273,0,0.5-0.065,0.68-0.196s0.324-0.321,0.434-0.571v-4.77h1.172v6.34h-1.037L37.948,78.592z"/>
		<path fill="#333333" d="M43.444,79.4c-0.039-0.145-0.072-0.282-0.1-0.413s-0.047-0.259-0.059-0.384l-0.012-0.006
			c-0.164,0.27-0.367,0.49-0.609,0.662s-0.514,0.258-0.814,0.258c-0.523,0-0.927-0.165-1.21-0.495s-0.425-0.784-0.425-1.362
			c0-0.617,0.192-1.096,0.577-1.436s0.938-0.51,1.661-0.51h0.814v-0.65c0-0.395-0.077-0.698-0.231-0.911s-0.378-0.319-0.671-0.319
			c-0.27,0-0.48,0.095-0.633,0.284s-0.229,0.437-0.229,0.741l-1.178-0.006c0-0.52,0.193-0.968,0.58-1.345s0.898-0.565,1.535-0.565
			c0.605,0,1.091,0.181,1.456,0.542s0.548,0.892,0.548,1.591v2.941c0,0.242,0.015,0.476,0.044,0.7s0.075,0.452,0.138,0.683H43.444z
			 M42.12,78.603c0.258,0,0.488-0.077,0.691-0.231s0.355-0.353,0.457-0.595v-1.324h-0.832c-0.34,0-0.6,0.115-0.779,0.346
			s-0.27,0.516-0.27,0.855c0,0.289,0.063,0.52,0.188,0.691S41.882,78.603,42.12,78.603z"/>
		<path fill="#333333" d="M46.831,73.06l0.064,0.855h0.018c0.16-0.309,0.364-0.548,0.612-0.718s0.532-0.255,0.853-0.255
			c0.539,0,0.954,0.198,1.245,0.595s0.437,1.03,0.437,1.901V79.4h-1.178v-3.949c0-0.59-0.075-1.001-0.226-1.233
			s-0.39-0.349-0.718-0.349c-0.223,0-0.418,0.07-0.586,0.211s-0.309,0.336-0.422,0.586V79.4h-1.178v-6.34H46.831z"/>
	</g>
	<g>
		<path fill="none" stroke="#333333" stroke-width="1.5" stroke-miterlimit="10" d="M54.5,47.901c0,2.54-2.059,4.599-4.6,4.599
			H5.099c-2.54,0-4.599-2.059-4.599-4.599V5.099c0-2.54,2.059-4.6,4.599-4.6h44.803c2.539,0,4.599,2.06,4.599,4.6L54.5,47.901
			L54.5,47.901z"/>
		<circle fill="none" stroke="#333333" stroke-width="1.5" stroke-miterlimit="10" cx="10.729" cy="28.438" r="5.688"/>
		<circle fill="none" stroke="#333333" stroke-width="1.5" stroke-miterlimit="10" cx="40.729" cy="22.438" r="5.688"/>
		<path fill="none" stroke="#333333" stroke-width="1.5" stroke-miterlimit="10" d="M5.563,52.219c0,0-2.063-0.905-2.063-3.905
			s0-9.813,0-9.813s0.042-2,3.229-2h9.313l6.813,9H30.5v3h-8.458l-3.875-5H16.5V52"/>
		<path fill="#333333" d="M33,44H23v-8h10V44z M24,43h8v-6h-8V43z"/>
		<g>
			<polygon fill="#333333" points="23,42 21,42 21,34 31,34 31,37 30,37 30,35 22,35 22,41 23,41 			"/>
		</g>
		<path fill="none" stroke="#333333" stroke-width="1.5" stroke-miterlimit="10" d="M38.064,46.287
			c0.209,0.9,0.379,1.903,0.477,2.38c0.5,2.417,2.5,2.833,2.5,2.833h5.375c0,0,1.959,0.041,3.875-0.541
			c1.918-0.584,1.418-2.917,1.418-2.917s-2-13.896-2.418-15.729c-0.416-1.833-2.25-1.813-2.25-1.813h-11l-4.525,4.422"/>
		<path fill="none" stroke="#333333" stroke-width="1.5" stroke-miterlimit="10" d="M32.541,40.031l3.168-3.531
			c0,0,0.754,3.074,1.498,6.17"/>
		<polyline fill="none" stroke="#333333" stroke-width="1.5" stroke-miterlimit="10" points="47.666,30.646 37.113,43.01 32.5,44.5 
			32.5,47.5 38.043,46.287 49.617,33.89 		"/>
		<polygon points="23,44 21,42 21.619,41.225 23.619,43.225 		"/>
		<polygon points="23.042,37.25 21.042,35.25 21.661,34.475 23.661,36.475 		"/>
		<polygon points="32.381,36.775 30.381,34.775 31,34 33,36 		"/>
	</g>
</g>
</svg>
