<?xml version="1.0" encoding="utf-8"?>
<!-- Generator: Adobe Illustrator 16.0.0, SVG Export Plug-In . SVG Version: 6.00 Build 0)  -->
<!DOCTYPE svg PUBLIC "-//W3C//DTD SVG 1.1//EN" "http://www.w3.org/Graphics/SVG/1.1/DTD/svg11.dtd">
<svg version="1.1" id="Layer_1" xmlns="http://www.w3.org/2000/svg" xmlns:xlink="http://www.w3.org/1999/xlink" x="0px" y="0px"
	 width="55px" height="85.652px" viewBox="0 0 55 85.652" enable-background="new 0 0 55 85.652" xml:space="preserve">
<g>
	<g>
		<text transform="matrix(1 0 0 1 6.9028 68)"><tspan x="0" y="0" font-family="'RobotoCondensed-Regular'" font-size="12">Semakan</tspan><tspan x="3.653" y="14.4" font-family="'RobotoCondensed-Regular'" font-size="12">SMOKU</tspan></text>
		<g>
			<path fill="none" stroke="#000000" stroke-miterlimit="10" d="M54.5,47.401c0,2.54-1.928,5.099-4.469,5.099H5.229
				c-2.539,0-4.729-2.559-4.729-5.099V4.599C0.5,2.059,2.689,0.5,5.229,0.5h44.803c2.541,0,4.469,1.559,4.469,4.099V47.401z"/>
		</g>
	</g>
	<polyline fill="none" stroke="#000000" stroke-miterlimit="10" points="24.5,13 24.5,29.5 39,29.5 44.375,41.5 49.25,40 	"/>
	<path fill="none" stroke="#000000" stroke-miterlimit="10" d="M41.968,36.077C40.75,42.025,35.486,46.5,29.179,46.5
		c-7.21,0-13.054-5.844-13.054-13.054c0-5.561,3.477-10.309,8.373-12.19"/>
	<line fill="none" stroke="#000000" stroke-miterlimit="10" x1="35" y1="23.5" x2="24" y2="23.5"/>
	<circle fill="none" stroke="#000000" stroke-miterlimit="10" cx="24.625" cy="9.625" r="3.375"/>
</g>
</svg>
