<?xml version="1.0" encoding="utf-8"?>
<!-- Generator: Adobe Illustrator 16.0.0, SVG Export Plug-In . SVG Version: 6.00 Build 0)  -->
<!DOCTYPE svg PUBLIC "-//W3C//DTD SVG 1.1//EN" "http://www.w3.org/Graphics/SVG/1.1/DTD/svg11.dtd">
<svg version="1.1" id="Layer_1" xmlns="http://www.w3.org/2000/svg" xmlns:xlink="http://www.w3.org/1999/xlink" x="0px" y="0px"
	 width="318px" height="753px" viewBox="0 0 318 753" enable-background="new 0 0 318 753" xml:space="preserve">
<g>
	<g>
		<path fill="#E6E7E8" stroke="#D1D3D4" stroke-miterlimit="10" d="M61.498,589.368v80.013
			c-12.793,1.325-22.769,12.138-22.769,25.282c0,14.04,11.382,25.421,25.421,25.421s25.422-11.381,25.422-25.42
			c0-13.146-9.977-23.957-22.77-25.283v-80.013H61.498z"/>
		<path fill="#F26A5C" stroke="#BE1E2D" stroke-miterlimit="10" d="M66.803,589.368V509.65c12.793-1.327,22.77-12.142,22.77-25.282
			c0-13.146-9.977-23.957-22.77-25.283v-80.014h-5.305v80.014c-12.792,1.325-22.769,12.139-22.769,25.282
			c0,13.143,9.976,23.956,22.769,25.283v79.718H66.803z"/>
		<path fill="#94CA5C" stroke="#7CAB4E" stroke-miterlimit="10" d="M66.803,168.776V88.764c12.793-1.327,22.77-12.14,22.77-25.284
			c0-14.039-11.383-25.42-25.422-25.42S38.729,49.44,38.729,63.479c0,13.145,9.976,23.957,22.769,25.284v80.013H66.803z"/>
		<path fill="#94CA5C" stroke="#7CAB4E" stroke-miterlimit="10" d="M66.803,379.072v-79.718c12.793-1.327,22.77-12.14,22.77-25.282
			c0-13.146-9.977-23.957-22.77-25.283v-80.013h-5.305v80.013c-12.793,1.325-22.769,12.139-22.769,25.282
			c0,13.143,9.976,23.956,22.769,25.283v79.718H66.803L66.803,379.072z"/>
		<text transform="matrix(1 0 0 1 58.5361 70.9023)" fill="#3E622E" font-family="'RobotoCondensed-Bold'" font-size="23.4625">1</text>
		<g>
			<text transform="matrix(1 0 0 1 58.5366 280.8516)" fill="#3E622E" font-family="'RobotoCondensed-Bold'" font-size="23.4625">2</text>
		</g>
		<text transform="matrix(1 0 0 1 58.5366 491.6094)" fill="#FFFFFF" font-family="'RobotoCondensed-Bold'" font-size="23.4625">3</text>
		<text transform="matrix(1 0 0 1 58.5366 701.9629)" fill="#939598" font-family="'RobotoCondensed-Bold'" font-size="23.4625">4</text>
	</g>
	<g>
		<path fill="#94CA5C" d="M121.127,118.201c0,1.504-1.219,2.723-2.723,2.723H98.436c-1.504,0-2.723-1.219-2.723-2.723V98.232
			c0-1.503,1.219-2.723,2.723-2.723h19.969c1.504,0,2.723,1.22,2.723,2.723L121.127,118.201L121.127,118.201z"/>
		<polyline fill="none" stroke="#FFFFFF" stroke-width="3" stroke-miterlimit="10" points="102.17,107.967 106.17,112.467 
			114.67,103.967 		"/>
	</g>
	<g>
		<path fill="#94CA5C" d="M121.127,328.401c0,1.504-1.219,2.723-2.723,2.723H98.436c-1.504,0-2.723-1.219-2.723-2.723v-19.969
			c0-1.503,1.219-2.723,2.723-2.723h19.969c1.504,0,2.723,1.22,2.723,2.723L121.127,328.401L121.127,328.401z"/>
		<polyline fill="none" stroke="#FFFFFF" stroke-width="3" stroke-miterlimit="10" points="102.17,318.167 106.17,322.667 
			114.67,314.167 		"/>
	</g>
	<g>
		<text transform="matrix(1 0 0 1 95.7129 46.2764)" fill="#414042" font-family="'RobotoCondensed-Light'" font-size="16">Account Information</text>
		<text transform="matrix(1 0 0 1 95.7129 66.2764)" fill="#A7A9AC" font-family="'RobotoCondensed-Light'" font-size="16">Enter your first time username </text>
		<text transform="matrix(1 0 0 1 95.7129 85.4766)" fill="#A7A9AC" font-family="'RobotoCondensed-Light'" font-size="16">passworddetails </text>
	</g>
	<g>
		<text transform="matrix(1 0 0 1 95.2129 255.9248)" fill="#414042" font-family="'RobotoCondensed-Light'" font-size="16">Personal Information</text>
		<text transform="matrix(1 0 0 1 95.2129 275.9248)" fill="#A7A9AC" font-family="'RobotoCondensed-Light'" font-size="16">Enter your first time username </text>
		<text transform="matrix(1 0 0 1 95.2129 295.125)" fill="#A7A9AC" font-family="'RobotoCondensed-Light'" font-size="16">passworddetails </text>
	</g>
	<g>
		<text transform="matrix(1 0 0 1 95.2129 467.2197)" fill="#414042" font-family="'RobotoCondensed-Light'" font-size="16">FInancial Information</text>
		<text transform="matrix(1 0 0 1 95.2129 487.2197)" fill="#A7A9AC" font-family="'RobotoCondensed-Light'" font-size="16">Enter your first time username </text>
		<text transform="matrix(1 0 0 1 95.2129 506.4199)" fill="#A7A9AC" font-family="'RobotoCondensed-Light'" font-size="16">passworddetails </text>
	</g>
	<g>
		<text transform="matrix(1 0 0 1 95.2129 677.2041)" fill="#414042" font-family="'RobotoCondensed-Light'" font-size="16">Confirm your details</text>
		<text transform="matrix(1 0 0 1 95.2129 697.2041)" fill="#A7A9AC" font-family="'RobotoCondensed-Light'" font-size="16">Enter your first time username </text>
		<text transform="matrix(1 0 0 1 95.2129 716.4043)" fill="#A7A9AC" font-family="'RobotoCondensed-Light'" font-size="16">passworddetails </text>
	</g>
</g>
</svg>
