<?xml version="1.0" encoding="utf-8"?>
<!-- Generator: Adobe Illustrator 16.0.0, SVG Export Plug-In . SVG Version: 6.00 Build 0)  -->
<!DOCTYPE svg PUBLIC "-//W3C//DTD SVG 1.1//EN" "http://www.w3.org/Graphics/SVG/1.1/DTD/svg11.dtd">
<svg version="1.1" id="Capa_1" xmlns="http://www.w3.org/2000/svg" xmlns:xlink="http://www.w3.org/1999/xlink" x="0px" y="0px"
	 width="18.234px" height="20px" viewBox="0 5 18.234 20" enable-background="new 0 5 18.234 20" xml:space="preserve">
<g>
	<g>
		<path fill="#FFD400" d="M6.589,10.481l0.148-0.159l0.414,0.384c-0.07,0.075-0.115,0.124-0.149,0.16L6.589,10.481z"/>
		<path fill="#FFD400" d="M6.944,10.515c-0.069,0.074-0.114,0.123-0.148,0.158C6.859,10.606,6.944,10.515,6.944,10.515z"/>
		<path fill="#FFD400" d="M7.95,16.577v-0.282c0-0.594,0.074-1.084,0.22-1.459c0.149-0.384,0.457-0.803,0.941-1.278l0.475-0.469
			c0.12-0.113,0.218-0.233,0.292-0.357l0.002-0.003c0.13-0.212,0.194-0.424,0.194-0.646c0-0.321-0.092-0.59-0.281-0.822
			c-0.172-0.213-0.481-0.32-0.919-0.32c-0.545,0-0.908,0.188-1.108,0.576c-0.122,0.234-0.192,0.589-0.21,1.053l-0.01,0.271H5.944
			v-0.282c0-0.917,0.267-1.669,0.793-2.236C7.27,9.749,8.002,9.458,8.916,9.458c0.844,0,1.534,0.249,2.051,0.74
			c0.521,0.494,0.785,1.133,0.785,1.896c0,0.469-0.102,0.861-0.303,1.167c-0.185,0.28-0.535,0.669-1.072,1.188
			c-0.349,0.339-0.574,0.62-0.67,0.839c-0.095,0.217-0.144,0.555-0.144,1.006v0.282H7.95L7.95,16.577z"/>
		<path fill="#FFD400" d="M10.011,11.082c0.23,0.282,0.344,0.616,0.344,1c0,0.274-0.079,0.539-0.235,0.794
			c-0.086,0.145-0.199,0.285-0.34,0.418l-0.471,0.465c-0.451,0.443-0.743,0.836-0.876,1.181c-0.133,0.343-0.2,0.795-0.2,1.355h1.047
			c0-0.494,0.057-0.867,0.168-1.121c0.112-0.253,0.356-0.561,0.733-0.927c0.518-0.502,0.862-0.883,1.032-1.141
			c0.17-0.259,0.256-0.597,0.256-1.013c0-0.686-0.232-1.249-0.697-1.691c-0.465-0.441-1.083-0.661-1.856-0.661
			c-0.835,0-1.492,0.258-1.971,0.773c-0.479,0.516-0.718,1.196-0.718,2.043h1.047c0.02-0.51,0.101-0.9,0.242-1.17
			c0.25-0.486,0.703-0.73,1.359-0.73C9.403,10.658,9.782,10.8,10.011,11.082z"/>
		<path fill="#FFD400" d="M9.118,23.234c-2.436,0-4.725-0.948-6.447-2.67C0.949,18.842,0,16.553,0,14.117
			c0-2.435,0.949-4.725,2.67-6.446C4.393,5.948,6.682,5,9.118,5c2.435,0,4.725,0.948,6.447,2.671c1.722,1.722,2.67,4.012,2.67,6.446
			c0,2.436-0.948,4.725-2.67,6.447C13.842,22.286,11.553,23.234,9.118,23.234z M9.118,6.368c-4.273,0-7.75,3.477-7.75,7.749
			c0,4.273,3.477,7.749,7.75,7.749c4.273,0,7.75-3.476,7.75-7.749C16.867,9.845,13.391,6.368,9.118,6.368z"/>
		<path fill="#FFD400" d="M17.952,14.117c0-4.88-3.956-8.835-8.834-8.835c-4.879,0-8.835,3.955-8.835,8.835
			c0,4.879,3.956,8.835,8.835,8.835C13.997,22.952,17.952,18.996,17.952,14.117z M1.085,14.117c0-4.437,3.596-8.032,8.032-8.032
			c4.436,0,8.032,3.596,8.032,8.032c0,4.436-3.596,8.032-8.032,8.032C4.681,22.149,1.085,18.553,1.085,14.117z"/>
		<rect x="7.926" y="16.988" fill="#FFD400" width="1.736" height="1.788"/>
		<rect x="8.208" y="17.271" fill="#FFD400" width="1.171" height="1.224"/>
	</g>
</g>
</svg>
