<?xml version="1.0" encoding="utf-8"?>
<!-- Generator: Adobe Illustrator 16.0.0, SVG Export Plug-In . SVG Version: 6.00 Build 0)  -->
<!DOCTYPE svg PUBLIC "-//W3C//DTD SVG 1.1//EN" "http://www.w3.org/Graphics/SVG/1.1/DTD/svg11.dtd">
<svg version="1.1" id="Capa_1" xmlns="http://www.w3.org/2000/svg" xmlns:xlink="http://www.w3.org/1999/xlink" x="0px" y="0px"
	 width="18.234px" height="20px" viewBox="0 5 18.234 20" enable-background="new 0 5 18.234 20" xml:space="preserve">
<g>
	<g>
		<path fill="#FFD400" d="M0.776,23.234h16.684c0.427,0,0.775-0.316,0.775-0.705v-6.354c0-0.39-0.35-0.705-0.775-0.705
			c-0.429,0-0.776,0.315-0.776,0.705v5.646H1.551v-5.646c0-0.39-0.349-0.705-0.775-0.705C0.349,15.471,0,15.787,0,16.177v6.354
			C0,22.918,0.35,23.234,0.776,23.234z"/>
		<path fill="#FFD400" d="M9.182,5C8.756,5,8.407,5.317,8.407,5.706v10.752l-4.929-4.164c-0.311-0.271-0.802-0.246-1.1,0.035
			c-0.297,0.282-0.271,0.729,0.04,1l6.207,5.234c0.078,0.071,0.181,0.118,0.285,0.152c0.09,0.023,0.181,0.048,0.271,0.048
			c0.271,0,0.504-0.129,0.647-0.317l6.116-5.117c0.312-0.259,0.335-0.706,0.053-1c-0.284-0.281-0.776-0.306-1.1-0.047l-4.94,4.142
			V5.706C9.958,5.317,9.609,5,9.182,5z"/>
	</g>
</g>
</svg>
