<?xml version="1.0" encoding="utf-8"?>
<!-- Generator: Adobe Illustrator 16.0.0, SVG Export Plug-In . SVG Version: 6.00 Build 0)  -->
<!DOCTYPE svg PUBLIC "-//W3C//DTD SVG 1.1//EN" "http://www.w3.org/Graphics/SVG/1.1/DTD/svg11.dtd">
<svg version="1.1" id="Capa_1" xmlns="http://www.w3.org/2000/svg" xmlns:xlink="http://www.w3.org/1999/xlink" x="0px" y="0px"
	 width="18.234px" height="20px" viewBox="0 0 18.234 20" enable-background="new 0 0 18.234 20" xml:space="preserve">
<g>
	<g>
		<path fill="#FFD400" d="M6.588,5.481l0.148-0.159L7.15,5.706C7.08,5.781,7.035,5.83,7.001,5.866L6.588,5.481z"/>
		<path fill="#FFD400" d="M6.944,5.515c-0.07,0.074-0.115,0.123-0.149,0.158C6.859,5.605,6.944,5.515,6.944,5.515z"/>
		<path fill="#FFD400" d="M7.949,11.577v-0.282c0-0.594,0.074-1.084,0.22-1.459C8.318,9.452,8.626,9.033,9.11,8.559l0.475-0.47
			c0.12-0.112,0.221-0.233,0.292-0.356l0.002-0.004c0.131-0.211,0.195-0.424,0.195-0.646c0-0.321-0.092-0.59-0.281-0.822
			c-0.172-0.213-0.479-0.32-0.92-0.32c-0.545,0-0.908,0.188-1.105,0.576C7.645,6.75,7.575,7.105,7.557,7.57L7.545,7.841H5.944V7.558
			c0-0.916,0.267-1.668,0.793-2.235C7.27,4.749,8.001,4.458,8.915,4.458c0.844,0,1.534,0.249,2.051,0.74
			c0.521,0.493,0.785,1.133,0.785,1.896c0,0.469-0.102,0.861-0.303,1.167c-0.186,0.28-0.535,0.669-1.072,1.188
			c-0.35,0.339-0.574,0.619-0.67,0.839c-0.095,0.218-0.144,0.556-0.144,1.006v0.282L7.949,11.577L7.949,11.577z"/>
		<path fill="#FFD400" d="M10.011,6.082c0.229,0.282,0.344,0.616,0.344,1c0,0.273-0.08,0.539-0.236,0.794
			c-0.086,0.146-0.199,0.285-0.34,0.418l-0.47,0.465C8.858,9.202,8.566,9.595,8.433,9.94c-0.136,0.344-0.2,0.795-0.2,1.354H9.28
			c0-0.493,0.057-0.866,0.168-1.12c0.112-0.252,0.357-0.562,0.734-0.928c0.518-0.502,0.859-0.883,1.029-1.142
			c0.17-0.258,0.258-0.597,0.258-1.013c0-0.686-0.232-1.249-0.697-1.691C10.307,4.96,9.69,4.74,8.916,4.74
			c-0.835,0-1.492,0.258-1.971,0.772C6.465,6.03,6.227,6.71,6.227,7.556h1.047c0.02-0.51,0.101-0.899,0.242-1.17
			C7.766,5.9,8.219,5.657,8.874,5.657C9.403,5.658,9.781,5.8,10.011,6.082z"/>
		<path fill="#FFD400" d="M9.117,18.234c-2.436,0-4.725-0.948-6.447-2.67c-1.722-1.723-2.671-4.012-2.671-6.447
			c0-2.436,0.949-4.725,2.67-6.446C4.394,0.948,6.683,0,9.117,0s4.724,0.948,6.447,2.671c1.723,1.722,2.67,4.013,2.67,6.446
			c0,2.436-0.947,4.725-2.67,6.447C13.842,17.286,11.552,18.234,9.117,18.234z M9.117,1.368c-4.271,0-7.75,3.477-7.75,7.749
			c0,4.273,3.479,7.749,7.75,7.749c4.273,0,7.75-3.476,7.75-7.749C16.867,4.845,13.39,1.368,9.117,1.368z"/>
		<path fill="#FFD400" d="M17.951,9.117c0-4.88-3.955-8.835-8.833-8.835c-4.879,0-8.836,3.955-8.836,8.835
			c0,4.879,3.956,8.835,8.835,8.835S17.951,13.996,17.951,9.117z M1.084,9.117c0-4.437,3.599-8.032,8.032-8.032
			c4.436,0,8.032,3.596,8.032,8.032c0,4.436-3.598,8.031-8.032,8.031S1.084,13.553,1.084,9.117z"/>
		<rect x="7.925" y="11.988" fill="#FFD400" width="1.737" height="1.787"/>
		<rect x="8.207" y="12.271" fill="#FFD400" width="1.171" height="1.224"/>
	</g>
</g>
</svg>
