<?xml version="1.0" encoding="utf-8"?>
<!-- Generator: Adobe Illustrator 16.0.0, SVG Export Plug-In . SVG Version: 6.00 Build 0)  -->
<!DOCTYPE svg PUBLIC "-//W3C//DTD SVG 1.1//EN" "http://www.w3.org/Graphics/SVG/1.1/DTD/svg11.dtd">
<svg version="1.1" id="Capa_1" xmlns="http://www.w3.org/2000/svg" xmlns:xlink="http://www.w3.org/1999/xlink" x="0px" y="0px"
	 width="120px" height="120px" viewBox="74.809 60 120 120" enable-background="new 74.809 60 120 120" xml:space="preserve">
<path fill="#FFFFFF" d="M163.187,156l-0.097-0.892c-1.213-11.114-8.733-21.793-17.881-25.394h-0.01
	c-3.293,1.583-6.789,2.385-10.39,2.385c-3.601,0-7.096-0.803-10.39-2.385h-0.01c-9.147,3.6-16.667,14.279-17.881,25.394L106.431,156
	h-4.361l0.11-1.1c0.582-5.785,2.59-11.712,5.372-15.857c2.683-3.997,7.011-9.338,12.398-12.083l0.018-0.009l-0.016-0.013
	c-5.843-4.602-9.193-11.486-9.193-18.888c0-13.261,10.789-24.05,24.05-24.05s24.05,10.789,24.05,24.05
	c0,7.402-3.351,14.287-9.194,18.888l-0.016,0.012l0.018,0.009c5.387,2.745,9.716,8.086,12.399,12.084
	c2.782,4.143,4.79,10.071,5.372,15.856l0.11,1.1H163.187z M134.809,88.35c-10.862,0-19.7,8.837-19.7,19.7s8.837,19.7,19.7,19.7
	s19.7-8.837,19.701-19.7C154.509,97.188,145.671,88.35,134.809,88.35z"/>
<path fill="#FFFFFF" d="M164.083,155c-1.175-10.766-8.356-22.22-18.509-26.216l-0.412-0.162l-0.398,0.191
	c-3.157,1.518-6.507,2.287-9.957,2.287c-3.449,0-6.799-0.769-9.957-2.287l-0.397-0.191l-0.412,0.162
	c-10.153,3.996-17.333,15.45-18.509,26.216h-2.358c0.52-5.167,2.31-11.083,5.207-15.4c3.027-4.51,7.185-9.284,12.022-11.75
	l1.41-0.719l-1.244-0.979c-5.6-4.411-8.812-11.009-8.812-18.102c0-12.709,10.34-23.05,23.05-23.05c12.71,0,23.05,10.341,23.05,23.05
	c0,7.093-3.211,13.691-8.813,18.103l-1.243,0.979l1.41,0.719c4.838,2.465,8.996,7.24,12.023,11.75
	c2.898,4.317,4.687,10.233,5.207,15.399H164.083L164.083,155z M134.809,87.35c-11.414,0-20.7,9.286-20.7,20.7
	c0,11.414,9.286,20.7,20.7,20.7c11.414,0,20.7-9.287,20.701-20.7C155.509,96.636,146.223,87.35,134.809,87.35z"/>
</svg>
