<?xml version="1.0" encoding="utf-8"?>
<!-- Generator: Adobe Illustrator 16.0.0, SVG Export Plug-In . SVG Version: 6.00 Build 0)  -->
<!DOCTYPE svg PUBLIC "-//W3C//DTD SVG 1.1//EN" "http://www.w3.org/Graphics/SVG/1.1/DTD/svg11.dtd">
<svg version="1.1" id="Capa_1" xmlns="http://www.w3.org/2000/svg" xmlns:xlink="http://www.w3.org/1999/xlink" x="0px" y="0px"
	 width="120px" height="120px" viewBox="0 190 120 120" enable-background="new 0 190 120 120" xml:space="preserve">
<path fill="#FFFFFF" d="M57.417,286c-13.402,0-24.306-10.903-24.306-24.306v-16.137c0-1.209,0.983-2.193,2.192-2.193h2.928v-7.596
	c0-5.806,2.266-11.27,6.383-15.386C48.73,216.267,54.194,214,60,214c12.004,0,21.77,9.766,21.77,21.769v7.596h2.928
	c1.209,0,2.192,0.984,2.192,2.193v16.137c0,13.402-10.903,24.306-24.306,24.306H57.417z M37.496,261.694
	c0,10.983,8.937,19.92,19.921,19.92h5.167c10.984,0,19.921-8.937,19.921-19.92V247.75H37.496V261.694z M77.383,243.365v-7.596
	c0-4.636-1.81-8.999-5.097-12.287c-3.287-3.287-7.651-5.098-12.287-5.098c-9.585,0-17.384,7.798-17.384,17.384v7.596H77.383z
	 M57.853,273.501c-1.209,0-2.192-0.983-2.192-2.192v-6.003c-1.541-1.281-2.446-3.194-2.446-5.217c0-3.741,3.044-6.785,6.785-6.785
	s6.785,3.044,6.785,6.785c0,2.022-0.906,3.935-2.447,5.217v6.003c0.001,0.584-0.227,1.135-0.64,1.549
	c-0.415,0.415-0.966,0.644-1.552,0.644H57.853z M60,257.689c-1.324,0-2.4,1.076-2.4,2.4c0,0.891,0.491,1.703,1.281,2.123
	c0.583,0.309,0.987,0.854,1.12,1.484c0.132-0.631,0.536-1.178,1.12-1.485c0.79-0.419,1.281-1.231,1.281-2.122
	C62.401,258.766,61.324,257.689,60,257.689z"/>
<path fill="#FFFFFF" d="M62.583,285h-5.167c-12.851,0-23.306-10.455-23.306-23.306v-16.137c0-0.659,0.534-1.193,1.192-1.193h3.928
	v-8.596C39.23,224.317,48.548,215,60,215c11.452,0,20.77,9.317,20.77,20.769v8.596h3.928c0.658,0,1.192,0.534,1.192,1.193v16.137
	C85.889,274.545,75.434,285,62.583,285z M36.496,246.75v14.944c0,11.535,9.385,20.92,20.921,20.92h5.167
	c11.535,0,20.921-9.385,20.921-20.92V246.75H36.496z M41.616,244.365h36.768v-8.596c0.001-10.137-8.246-18.384-18.384-18.384
	c-10.137,0-18.384,8.247-18.384,18.384V244.365z M62.145,272.501h-4.292c-0.658,0-1.192-0.534-1.192-1.192v-6.495
	c-1.525-1.077-2.446-2.827-2.446-4.725c0-3.189,2.595-5.785,5.785-5.785c3.189,0,5.785,2.596,5.785,5.785
	c0,1.897-0.922,3.647-2.447,4.725v6.495C63.338,271.967,62.804,272.501,62.145,272.501z M59.046,270.116h1.907v-5.967
	c0-0.441,0.244-0.848,0.634-1.054c1.119-0.593,1.813-1.744,1.813-3.006c0-1.875-1.525-3.4-3.4-3.4s-3.4,1.525-3.4,3.4
	c0,1.262,0.694,2.413,1.813,3.006c0.391,0.207,0.635,0.612,0.635,1.054L59.046,270.116L59.046,270.116z"/>
</svg>
