<?xml version="1.0" encoding="utf-8"?>
<!-- Generator: Adobe Illustrator 16.0.0, SVG Export Plug-In . SVG Version: 6.00 Build 0)  -->
<!DOCTYPE svg PUBLIC "-//W3C//DTD SVG 1.1//EN" "http://www.w3.org/Graphics/SVG/1.1/DTD/svg11.dtd">
<svg version="1.1" id="Layer_1" xmlns="http://www.w3.org/2000/svg" xmlns:xlink="http://www.w3.org/1999/xlink" x="0px" y="0px"
	 width="163.4px" height="76.003px" viewBox="-125.117 -215.866 163.4 76.003"
	 enable-background="new -125.117 -215.866 163.4 76.003" xml:space="preserve">
<g>
	<g>
		<path fill="#FFFFFF" d="M10.033-184.516l8.55,8.55l8.601-8.55l3.5-3.55c0.633,0.5,1.25,1.05,1.85,1.65
			c0.2,0.233,0.4,0.45,0.6,0.65c0.367,0.4,0.717,0.8,1.051,1.2c2.732,3.467,4.1,7.5,4.1,12.1s-1.367,8.616-4.1,12.051
			c-0.5,0.633-1.051,1.25-1.65,1.85c-0.6,0.601-1.217,1.15-1.85,1.65l-3.5-3.5c0.633-0.468,1.25-1,1.85-1.601s1.133-1.233,1.6-1.899
			c1.834-2.468,2.75-5.316,2.75-8.551c0-1.367-0.149-2.634-0.449-3.8c-0.467-1.734-1.233-3.333-2.301-4.8l-12.05,12.05l-12.05-12.05
			c-1.066,1.467-1.816,3.066-2.25,4.8c-0.3,1.166-0.45,2.433-0.45,3.8c0,0.533,0.033,1.066,0.101,1.6
			c0.232,2.566,1.1,4.885,2.6,6.951c0.467,0.666,1.018,1.299,1.65,1.899c0.199,0.198,0.416,0.399,0.649,0.601
			c0.367,0.365,0.767,0.699,1.2,1l-3.5,3.5c-0.4-0.334-0.8-0.668-1.2-1c-0.233-0.201-0.45-0.418-0.649-0.65
			c-0.601-0.6-1.15-1.217-1.65-1.85c-2.3-2.9-3.633-6.201-4-9.9c-0.1-0.733-0.15-1.449-0.15-2.149c0-4.601,1.383-8.633,4.15-12.1
			c0.5-0.633,1.05-1.25,1.65-1.85c0.6-0.6,1.217-1.15,1.85-1.65L10.033-184.516z M-76.217-157.015l3.55-3.5
			c2.133,1.566,4.567,2.466,7.3,2.699c0.4,0,0.816,0,1.25,0c4.066,0,7.55-1.434,10.45-4.301c2.8-2.799,4.233-6.148,4.3-10.049v-0.9
			v-12.55v-25.35l4.95-4.9v43.75c-0.1,4.834-1.75,9.033-4.95,12.602c-0.267,0.3-0.55,0.583-0.85,0.85
			c-3.833,3.866-8.467,5.801-13.9,5.801C-68.717-152.867-72.75-154.25-76.217-157.015z M-7.217-184.766l-3.5,3.5l-8.55,8.55
			l8.55,8.6l3.5,3.5c-0.467,0.635-1,1.25-1.6,1.852c-0.601,0.6-1.217,1.148-1.851,1.648l-3.55-3.549l-8.55-8.551l-8.55,8.6
			l-3.551,3.5c-0.399-0.332-0.783-0.684-1.149-1.049c-0.233-0.201-0.45-0.4-0.65-0.601c-0.3-0.302-0.583-0.601-0.85-0.899
			c-0.3-0.301-0.566-0.617-0.8-0.951c-2.334-2.898-3.684-6.217-4.051-9.949c-0.033-0.533-0.066-1.066-0.1-1.6v-43.651l4.95,4.4v25.7
			v12.5c0,0.166,0,0.333,0,0.5v0.5c0,0.398,0.017,0.783,0.05,1.148c0.268,2.568,1.15,4.885,2.65,6.951l20.6-20.65l3.55-3.5
			c0.634,0.5,1.25,1.05,1.851,1.65c0.199,0.2,0.399,0.417,0.6,0.65C-7.85-185.566-7.517-185.166-7.217-184.766z M-93.367-181.066
			l-17.05,17.1c-0.7-0.434-1.35-0.949-1.95-1.55c-0.534-0.5-0.982-1.052-1.35-1.649c-0.067-0.101-0.133-0.201-0.2-0.301l17.1-17.05
			c-2.066-1.5-4.383-2.383-6.949-2.65c-0.533-0.067-1.083-0.1-1.65-0.1c-1.5,0-2.917,0.2-4.25,0.6
			c-1.533,0.467-2.967,1.183-4.3,2.15c-0.667,0.467-1.3,1-1.9,1.6c-0.566,0.6-1.1,1.233-1.6,1.9c-1.067,1.434-1.817,3.017-2.25,4.75
			c-0.3,1.198-0.45,2.466-0.45,3.8c0,0.533,0.033,1.066,0.1,1.6c0.233,2.602,1.101,4.918,2.601,6.951c0.467,0.666,1,1.299,1.6,1.899
			c0.233,0.198,0.45,0.399,0.65,0.601c0.399,0.365,0.815,0.699,1.25,1c2.167,1.565,4.617,2.449,7.35,2.649
			c0.4,0.032,0.8,0.05,1.2,0.05c3.233,0,6.1-0.9,8.6-2.699c0.367-0.268,0.733-0.566,1.101-0.9c0.232-0.233,0.482-0.467,0.75-0.699
			c0.6-0.602,1.133-1.232,1.6-1.9l3.55,3.551c-0.5,0.633-1.05,1.232-1.649,1.799c-0.601,0.602-1.217,1.15-1.851,1.65
			c-3.467,2.768-7.5,4.15-12.1,4.15s-8.617-1.385-12.05-4.15c-0.4-0.3-0.8-0.634-1.2-1c-0.233-0.199-0.45-0.416-0.65-0.65
			c-0.6-0.6-1.149-1.198-1.649-1.799c-2.333-2.935-3.685-6.25-4.05-9.951c-0.066-0.698-0.101-1.416-0.101-2.148
			c0-4.602,1.383-8.633,4.15-12.1c0.5-0.633,1.05-1.25,1.649-1.85c0.601-0.6,1.218-1.15,1.851-1.65c0.2-0.167,0.399-0.317,0.6-0.45
			c3.333-2.435,7.15-3.652,11.45-3.652c0.733,0,1.45,0.033,2.15,0.1c3.467,0.333,6.566,1.517,9.3,3.55
			c0.232,0.133,0.45,0.283,0.649,0.45c0.634,0.5,1.25,1.05,1.851,1.65c0.2,0.233,0.399,0.467,0.6,0.7
			c0.367,0.367,0.716,0.75,1.05,1.15L-93.367-181.066z"/>
		<path fill="#405784" d="M27.184-160.416l3.5,3.5c-3.467,2.766-7.5,4.149-12.101,4.149c-4.6,0-8.616-1.384-12.05-4.149l3.5-3.5
			c2.167,1.565,4.617,2.449,7.35,2.649c0.4,0.032,0.801,0.05,1.2,0.05C21.816-157.716,24.684-158.617,27.184-160.416z
			 M-76.217-157.015c-0.4-0.301-0.783-0.635-1.15-1c-0.232-0.2-0.467-0.417-0.7-0.65c-0.6-0.6-1.149-1.199-1.649-1.8
			c-2.3-2.935-3.633-6.25-4-9.95c-0.067-0.699-0.101-1.416-0.101-2.15c0-5.432,1.917-10.083,5.75-13.949
			c0.801-0.767,1.634-1.467,2.5-2.1c3.301-2.433,7.117-3.65,11.45-3.65c0.733,0,1.45,0.033,2.15,0.1
			c3.433,0.333,6.533,1.517,9.3,3.55c0.2,0.133,0.417,0.284,0.65,0.45c0.6,0.5,1.199,1.05,1.8,1.65
			c0.232,0.233,0.45,0.467,0.649,0.7c0.067,0.066,0.134,0.133,0.2,0.2v12.549c-0.034-1.166-0.184-2.268-0.45-3.301
			c-0.433-1.732-1.183-3.315-2.25-4.75c-0.3-0.433-0.633-0.85-1-1.25c-0.199-0.2-0.399-0.417-0.6-0.65c-0.6-0.6-1.233-1.133-1.9-1.6
			c-2.066-1.5-4.383-2.383-6.949-2.65c-0.533-0.066-1.066-0.1-1.601-0.1c-1.5,0-2.934,0.2-4.3,0.6
			c-2.267,0.667-4.316,1.917-6.15,3.75c-1.933,1.934-3.217,4.15-3.85,6.649c-0.333,1.201-0.5,2.467-0.5,3.801
			c0,0.533,0.033,1.066,0.1,1.601c0.268,2.601,1.15,4.916,2.65,6.95c0.467,0.666,1,1.3,1.6,1.898c0.233,0.201,0.45,0.4,0.65,0.602
			c0.4,0.365,0.817,0.699,1.25,1L-76.217-157.015z M-37.517-185.716c0.267-0.3,0.55-0.6,0.85-0.9c0.601-0.6,1.2-1.15,1.8-1.65
			c0.233-0.167,0.45-0.333,0.65-0.5c3.333-2.433,7.15-3.65,11.45-3.65c0.733,0,1.45,0.05,2.149,0.15
			c3.434,0.333,6.533,1.5,9.301,3.5c0.199,0.167,0.416,0.333,0.649,0.5l-3.55,3.5c-2.033-1.5-4.35-2.367-6.95-2.6
			c-0.5-0.066-1.032-0.1-1.6-0.1c-1.5,0-2.917,0.2-4.25,0.6c-1.533,0.434-2.966,1.133-4.3,2.1c-0.668,0.5-1.301,1.05-1.9,1.65
			c-0.6,0.567-1.133,1.184-1.6,1.85c-1.067,1.467-1.817,3.05-2.25,4.75c-0.268,1.065-0.418,2.166-0.45,3.3V-185.716L-37.517-185.716
			z M-10.717-181.266l3.5-3.5c2.768,3.434,4.15,7.45,4.15,12.05c0,4.6-1.383,8.633-4.15,12.1l-3.5-3.5
			c1.833-2.5,2.75-5.365,2.75-8.6c0-1.334-0.167-2.602-0.5-3.8C-8.9-178.216-9.65-179.799-10.717-181.266z M10.033-184.516
			l-3.5-3.55c0.2-0.167,0.4-0.317,0.6-0.45c3.334-2.433,7.15-3.65,11.45-3.65c0.733,0,1.45,0.033,2.15,0.1
			c3.467,0.333,6.567,1.517,9.3,3.55c0.232,0.133,0.45,0.283,0.65,0.45l-3.5,3.55c-2.067-1.5-4.383-2.383-6.95-2.65
			c-0.533-0.067-1.083-0.1-1.65-0.1c-1.5,0-2.917,0.2-4.25,0.6C12.801-186.233,11.366-185.516,10.033-184.516z M-31.316-160.617
			c2.166,1.566,4.6,2.451,7.3,2.65c0.399,0.033,0.817,0.051,1.25,0.051c3.233,0,6.083-0.918,8.55-2.75l3.55,3.549
			c-3.467,2.733-7.5,4.102-12.1,4.102c-4.601,0-8.634-1.367-12.101-4.102L-31.316-160.617z M-89.817-184.566
			c2.733,3.467,4.101,7.5,4.101,12.1s-1.367,8.633-4.101,12.1l-3.55-3.549c0.3-0.367,0.566-0.75,0.8-1.15
			c1.301-2.199,1.95-4.666,1.95-7.399c0-1.334-0.167-2.601-0.5-3.8c-0.434-1.734-1.184-3.333-2.25-4.8L-89.817-184.566z"/>
	</g>
</g>
<g>
	<path fill="#FFFFFF" d="M-120.669-144.32h-2.738v2.358h3.137v0.396h-3.602v-5.688h3.582v0.397h-3.117v2.138h2.738V-144.32z"/>
	<path fill="#FFFFFF" d="M-118.869-141.566h-0.465v-6.094h0.465V-141.566z"/>
	<path fill="#FFFFFF" d="M-115.947-141.488c-0.563,0-1.018-0.19-1.365-0.572c-0.347-0.383-0.521-0.881-0.521-1.494v-0.215
		c0-0.617,0.172-1.122,0.518-1.514c0.346-0.393,0.769-0.588,1.271-0.588c0.529,0,0.938,0.16,1.229,0.481s0.436,0.763,0.436,1.321
		v0.398h-2.986v0.113c0,0.484,0.129,0.884,0.387,1.199c0.258,0.314,0.602,0.473,1.031,0.473c0.258,0,0.484-0.037,0.678-0.111
		c0.194-0.074,0.378-0.191,0.553-0.354l0.199,0.32c-0.159,0.166-0.353,0.297-0.582,0.395S-115.611-141.488-115.947-141.488z
		 M-116.044-145.472c-0.352,0-0.644,0.131-0.877,0.393c-0.233,0.262-0.375,0.602-0.428,1.019h2.504v-0.117
		c0-0.375-0.105-0.685-0.316-0.929C-115.373-145.349-115.667-145.472-116.044-145.472z"/>
	<path fill="#FFFFFF" d="M-111.889-141.883c0.318,0,0.589-0.086,0.814-0.258c0.225-0.173,0.346-0.415,0.361-0.729h0.449
		c-0.013,0.405-0.176,0.737-0.488,0.996c-0.312,0.258-0.691,0.387-1.137,0.387c-0.586,0-1.033-0.193-1.342-0.58
		c-0.309-0.387-0.463-0.896-0.463-1.529v-0.164c0-0.628,0.154-1.137,0.463-1.525c0.309-0.389,0.754-0.584,1.338-0.584
		c0.469,0,0.854,0.137,1.156,0.406c0.302,0.27,0.459,0.637,0.473,1.098h-0.449c-0.013-0.338-0.13-0.606-0.352-0.807
		c-0.222-0.199-0.498-0.299-0.828-0.299c-0.463,0-0.801,0.16-1.014,0.48c-0.213,0.319-0.318,0.729-0.318,1.229v0.164
		c0,0.511,0.106,0.924,0.318,1.239C-112.696-142.042-112.354-141.883-111.889-141.883z"/>
	<path fill="#FFFFFF" d="M-108.635-146.875v1.082h0.887v0.383h-0.887v2.754c0,0.281,0.046,0.479,0.139,0.592
		c0.093,0.113,0.218,0.17,0.377,0.17c0.068,0,0.129-0.004,0.184-0.01c0.055-0.008,0.125-0.019,0.211-0.033l0.066,0.352
		c-0.07,0.028-0.154,0.053-0.25,0.07c-0.096,0.018-0.194,0.027-0.293,0.027c-0.292,0-0.515-0.092-0.67-0.271
		c-0.155-0.18-0.232-0.479-0.232-0.896v-2.754h-0.696v-0.383h0.695v-1.082H-108.635L-108.635-146.875z"/>
	<path fill="#FFFFFF" d="M-104.826-145.39l-0.348-0.023c-0.299,0-0.542,0.082-0.729,0.244c-0.187,0.163-0.32,0.393-0.4,0.686v2.918
		h-0.469v-4.227h0.41l0.059,0.702v0.021l0.012,0.004c0.12-0.256,0.28-0.453,0.48-0.594c0.2-0.142,0.445-0.211,0.734-0.211
		c0.06,0,0.118,0.004,0.174,0.014c0.056,0.009,0.102,0.019,0.139,0.029L-104.826-145.39z"/>
	<path fill="#FFFFFF" d="M-104.389-143.742c0-0.637,0.168-1.149,0.504-1.541c0.336-0.393,0.791-0.588,1.363-0.588
		c0.576,0,1.031,0.195,1.367,0.588c0.336,0.392,0.504,0.904,0.504,1.541v0.129c0,0.638-0.167,1.15-0.502,1.541
		c-0.335,0.39-0.789,0.584-1.361,0.584c-0.578,0-1.035-0.194-1.371-0.584c-0.336-0.391-0.504-0.903-0.504-1.541V-143.742z
		 M-103.919-143.613c0,0.5,0.122,0.912,0.365,1.24c0.243,0.326,0.59,0.489,1.041,0.489c0.445,0,0.79-0.163,1.033-0.489
		c0.243-0.328,0.365-0.74,0.365-1.24v-0.129c0-0.49-0.123-0.9-0.369-1.232c-0.246-0.332-0.592-0.498-1.037-0.498
		c-0.448,0-0.793,0.166-1.035,0.498s-0.363,0.742-0.363,1.232V-143.613z"/>
	<path fill="#FFFFFF" d="M-99.248-145.792l0.039,0.78l0.012,0.004c0.135-0.269,0.319-0.479,0.551-0.633
		c0.232-0.154,0.504-0.229,0.816-0.229c0.456,0,0.801,0.133,1.035,0.397c0.234,0.265,0.352,0.694,0.352,1.284v2.623h-0.469v-2.613
		c0-0.48-0.086-0.816-0.258-1.004c-0.172-0.188-0.43-0.281-0.773-0.281c-0.318,0-0.582,0.092-0.791,0.273s-0.367,0.414-0.471,0.695
		v2.93h-0.469v-4.227H-99.248z"/>
	<path fill="#FFFFFF" d="M-94.697-147.004h-0.465v-0.655h0.465V-147.004z M-94.697-141.566h-0.465v-4.227h0.465V-141.566z"/>
	<path fill="#FFFFFF" d="M-91.837-141.883c0.318,0,0.589-0.086,0.814-0.258c0.225-0.173,0.346-0.415,0.361-0.729h0.449
		c-0.013,0.405-0.176,0.737-0.488,0.996c-0.312,0.258-0.691,0.387-1.137,0.387c-0.586,0-1.033-0.193-1.342-0.58
		s-0.463-0.896-0.463-1.529v-0.164c0-0.628,0.154-1.137,0.463-1.525s0.754-0.584,1.338-0.584c0.469,0,0.854,0.137,1.156,0.406
		c0.302,0.27,0.459,0.637,0.473,1.098h-0.449c-0.013-0.338-0.13-0.606-0.352-0.807c-0.222-0.199-0.498-0.299-0.828-0.299
		c-0.463,0-0.801,0.16-1.014,0.48c-0.213,0.319-0.318,0.729-0.318,1.229v0.164c0,0.511,0.106,0.924,0.318,1.239
		C-92.645-142.042-92.304-141.883-91.837-141.883z"/>
	<path fill="#FFFFFF" d="M-84.708-147.254h0.469v4.074c0,0.528-0.152,0.942-0.457,1.244c-0.305,0.301-0.706,0.45-1.203,0.45
		c-0.544,0-0.969-0.137-1.275-0.409c-0.306-0.272-0.459-0.687-0.459-1.238h0.469c0,0.419,0.107,0.733,0.32,0.94
		c0.213,0.209,0.529,0.313,0.945,0.313c0.352,0,0.638-0.116,0.859-0.348c0.221-0.231,0.332-0.55,0.332-0.953V-147.254z"/>
	<path fill="#FFFFFF" d="M-83.174-143.742c0-0.637,0.168-1.149,0.504-1.541c0.336-0.393,0.791-0.588,1.363-0.588
		c0.576,0,1.031,0.195,1.367,0.588c0.336,0.392,0.504,0.904,0.504,1.541v0.129c0,0.638-0.167,1.15-0.502,1.541
		c-0.335,0.39-0.789,0.584-1.361,0.584c-0.578,0-1.035-0.194-1.371-0.584c-0.336-0.391-0.504-0.903-0.504-1.541V-143.742z
		 M-82.705-143.613c0,0.5,0.122,0.912,0.365,1.24c0.243,0.326,0.59,0.489,1.041,0.489c0.445,0,0.79-0.163,1.033-0.489
		c0.243-0.328,0.365-0.74,0.365-1.24v-0.129c0-0.49-0.123-0.9-0.369-1.232s-0.592-0.498-1.037-0.498
		c-0.448,0-0.793,0.166-1.035,0.498c-0.242,0.332-0.363,0.742-0.363,1.232V-143.613z"/>
	<path fill="#FFFFFF" d="M-75.688-142.242h-0.012c-0.133,0.242-0.311,0.429-0.535,0.559c-0.224,0.13-0.495,0.195-0.813,0.195
		c-0.456,0-0.807-0.147-1.055-0.441s-0.371-0.766-0.371-1.414v-2.449h0.469v2.457c0,0.526,0.086,0.898,0.258,1.117
		s0.423,0.328,0.754,0.328c0.362,0,0.646-0.078,0.854-0.234s0.352-0.375,0.436-0.66v-3.008h0.469v4.227h-0.414L-75.688-142.242z"/>
	<path fill="#FFFFFF" d="M-72.06-145.39l-0.348-0.023c-0.299,0-0.542,0.082-0.729,0.244c-0.187,0.163-0.32,0.393-0.4,0.686v2.918
		h-0.469v-4.227h0.41l0.059,0.702v0.021l0.012,0.004c0.12-0.256,0.28-0.453,0.48-0.594c0.2-0.142,0.445-0.211,0.734-0.211
		c0.06,0,0.118,0.004,0.174,0.014c0.056,0.009,0.102,0.019,0.139,0.029L-72.06-145.39z"/>
	<path fill="#FFFFFF" d="M-70.856-145.792l0.039,0.78l0.012,0.004c0.135-0.269,0.319-0.479,0.551-0.633
		c0.232-0.154,0.504-0.229,0.816-0.229c0.456,0,0.801,0.133,1.035,0.397c0.234,0.265,0.352,0.694,0.352,1.284v2.623h-0.469v-2.613
		c0-0.48-0.086-0.816-0.258-1.004c-0.172-0.188-0.43-0.281-0.773-0.281c-0.318,0-0.582,0.092-0.791,0.273s-0.367,0.414-0.471,0.695
		v2.93h-0.469v-4.227H-70.856z"/>
	<path fill="#FFFFFF" d="M-64.154-141.566c-0.031-0.146-0.053-0.27-0.066-0.367c-0.013-0.098-0.02-0.199-0.02-0.301l-0.012-0.004
		c-0.154,0.219-0.358,0.397-0.613,0.539c-0.255,0.141-0.548,0.211-0.879,0.211c-0.419,0-0.741-0.106-0.965-0.32
		c-0.224-0.215-0.336-0.508-0.336-0.883c0-0.398,0.166-0.713,0.498-0.943c0.332-0.23,0.79-0.346,1.373-0.346h0.934v-0.523
		c0-0.308-0.096-0.546-0.287-0.715c-0.191-0.169-0.464-0.254-0.818-0.254c-0.333,0-0.605,0.081-0.816,0.244
		c-0.211,0.162-0.316,0.363-0.316,0.604l-0.465-0.004c0-0.333,0.15-0.623,0.451-0.871c0.301-0.246,0.689-0.371,1.166-0.371
		s0.854,0.116,1.133,0.351c0.279,0.233,0.418,0.575,0.418,1.024v2.078c0,0.151,0.008,0.297,0.023,0.434
		c0.015,0.139,0.044,0.277,0.086,0.418H-64.154L-64.154-141.566z M-65.688-141.898c0.344,0,0.643-0.077,0.896-0.232
		c0.253-0.154,0.438-0.357,0.553-0.607v-0.883h-0.941c-0.432,0-0.773,0.09-1.023,0.269s-0.375,0.403-0.375,0.678
		c0,0.231,0.078,0.419,0.232,0.563C-66.193-141.967-65.973-141.898-65.688-141.898z"/>
	<path fill="#FFFFFF" d="M-62.006-141.566h-0.465v-6.094h0.465V-141.566z"/>
	<path fill="#FFFFFF" d="M-59.029-143.742c0-0.637,0.168-1.149,0.504-1.541c0.336-0.393,0.791-0.588,1.363-0.588
		c0.576,0,1.031,0.195,1.367,0.588c0.336,0.392,0.504,0.904,0.504,1.541v0.129c0,0.638-0.167,1.15-0.502,1.541
		c-0.335,0.39-0.789,0.584-1.361,0.584c-0.578,0-1.035-0.194-1.371-0.584c-0.336-0.391-0.504-0.903-0.504-1.541V-143.742z
		 M-58.56-143.613c0,0.5,0.122,0.912,0.365,1.24c0.243,0.326,0.59,0.489,1.041,0.489c0.445,0,0.79-0.163,1.033-0.489
		c0.243-0.328,0.365-0.74,0.365-1.24v-0.129c0-0.49-0.123-0.9-0.369-1.232s-0.592-0.498-1.037-0.498
		c-0.448,0-0.793,0.166-1.035,0.498c-0.242,0.332-0.363,0.742-0.363,1.232V-143.613z"/>
	<path fill="#FFFFFF" d="M-53.974-141.566v-3.844h-0.699v-0.383h0.699v-0.617c0-0.434,0.105-0.764,0.314-0.99
		s0.508-0.342,0.896-0.342c0.086,0,0.172,0.006,0.26,0.02c0.088,0.014,0.178,0.031,0.271,0.055l-0.059,0.387
		c-0.065-0.016-0.129-0.027-0.193-0.037c-0.064-0.008-0.141-0.014-0.232-0.014c-0.26,0-0.457,0.08-0.59,0.236
		s-0.199,0.387-0.199,0.686v0.617h1.008v0.383h-1.008v3.844H-53.974z"/>
	<path fill="#FFFFFF" d="M-48.365-144.242h-0.781v2.676h-0.465v-5.688h0.465v2.617h0.777l2.238-2.617h0.555l-2.371,2.798
		l2.539,2.891h-0.582L-48.365-144.242z"/>
	<path fill="#FFFFFF" d="M-44.294-145.792l0.039,0.78l0.012,0.004c0.135-0.269,0.319-0.479,0.551-0.633
		c0.232-0.154,0.504-0.229,0.817-0.229c0.455,0,0.801,0.133,1.034,0.397c0.235,0.265,0.353,0.694,0.353,1.284v2.623h-0.469v-2.613
		c0-0.48-0.086-0.816-0.259-1.004c-0.172-0.188-0.43-0.281-0.773-0.281c-0.318,0-0.582,0.092-0.791,0.273s-0.367,0.414-0.471,0.695
		v2.93h-0.469v-4.227H-44.294z"/>
	<path fill="#FFFFFF" d="M-40.528-143.742c0-0.637,0.168-1.149,0.504-1.541c0.336-0.393,0.791-0.588,1.363-0.588
		c0.576,0,1.031,0.195,1.367,0.588c0.336,0.392,0.504,0.904,0.504,1.541v0.129c0,0.638-0.168,1.15-0.502,1.541
		c-0.336,0.39-0.789,0.584-1.361,0.584c-0.578,0-1.035-0.194-1.371-0.584c-0.336-0.391-0.504-0.903-0.504-1.541V-143.742z
		 M-40.06-143.613c0,0.5,0.123,0.912,0.365,1.24c0.242,0.326,0.59,0.489,1.041,0.489c0.445,0,0.789-0.163,1.033-0.489
		c0.242-0.328,0.365-0.74,0.365-1.24v-0.129c0-0.49-0.123-0.9-0.369-1.232s-0.592-0.498-1.037-0.498
		c-0.449,0-0.793,0.166-1.035,0.498s-0.363,0.742-0.363,1.232V-143.613z"/>
	<path fill="#FFFFFF" d="M-34.903-142.937l0.168,0.781h0.012l0.203-0.781l0.898-2.855h0.402l0.896,2.855l0.207,0.797h0.014
		l0.184-0.797l0.77-2.855h0.484l-1.23,4.227h-0.398l-0.938-2.891l-0.191-0.754h-0.012l-0.191,0.754l-0.922,2.891h-0.402
		l-1.227-4.227h0.482L-34.903-142.937z"/>
	<path fill="#FFFFFF" d="M-29.235-141.566H-29.7v-6.094h0.465V-141.566z"/>
	<path fill="#FFFFFF" d="M-26.313-141.488c-0.563,0-1.018-0.19-1.365-0.572c-0.348-0.383-0.521-0.881-0.521-1.494v-0.215
		c0-0.617,0.172-1.122,0.52-1.514c0.346-0.393,0.768-0.588,1.27-0.588c0.529,0,0.939,0.16,1.23,0.481s0.436,0.763,0.436,1.321v0.398
		h-2.984v0.113c0,0.484,0.129,0.884,0.387,1.199c0.258,0.314,0.602,0.473,1.031,0.473c0.258,0,0.484-0.037,0.678-0.111
		c0.195-0.074,0.379-0.191,0.553-0.354l0.199,0.32c-0.158,0.166-0.354,0.297-0.582,0.395S-25.978-141.488-26.313-141.488z
		 M-26.411-145.472c-0.352,0-0.645,0.131-0.877,0.393s-0.375,0.602-0.428,1.019h2.504v-0.117c0-0.375-0.105-0.685-0.316-0.929
		C-25.739-145.349-26.034-145.472-26.411-145.472z"/>
	<path fill="#FFFFFF" d="M-24.005-143.644c0-0.688,0.139-1.23,0.42-1.629c0.279-0.399,0.68-0.598,1.201-0.598
		c0.299,0,0.555,0.06,0.766,0.18c0.211,0.119,0.387,0.293,0.527,0.52l0.012-0.004v-2.484h0.465v6.094h-0.414l-0.039-0.594
		l-0.012-0.004c-0.141,0.219-0.318,0.385-0.533,0.502c-0.215,0.115-0.475,0.174-0.779,0.174c-0.516,0-0.914-0.186-1.193-0.555
		c-0.279-0.371-0.42-0.877-0.42-1.521V-143.644L-24.005-143.644z M-23.536-143.562c0,0.521,0.1,0.93,0.301,1.227
		s0.51,0.445,0.93,0.445c0.311,0,0.563-0.066,0.76-0.201c0.197-0.134,0.352-0.322,0.467-0.564v-1.983
		c-0.107-0.25-0.26-0.45-0.451-0.601c-0.189-0.149-0.445-0.225-0.768-0.225c-0.418,0-0.73,0.166-0.934,0.498
		s-0.305,0.771-0.305,1.322V-143.562L-23.536-143.562z"/>
	<path fill="#FFFFFF" d="M-19.552-143.644c0-0.688,0.141-1.23,0.424-1.629c0.283-0.399,0.686-0.598,1.209-0.598
		c0.305,0,0.564,0.063,0.777,0.19s0.391,0.31,0.529,0.547l0.014-0.004l0.055-0.655h0.395v4.172c0,0.555-0.148,0.985-0.445,1.295
		c-0.297,0.309-0.719,0.463-1.27,0.463c-0.217,0-0.438-0.024-0.664-0.074c-0.227-0.051-0.432-0.121-0.613-0.215l0.121-0.375
		c0.186,0.089,0.369,0.154,0.551,0.201c0.182,0.045,0.381,0.067,0.598,0.067c0.42,0,0.734-0.118,0.941-0.356
		c0.209-0.238,0.313-0.573,0.313-1.006v-0.517l-0.012-0.004c-0.141,0.211-0.318,0.372-0.531,0.483
		c-0.213,0.112-0.469,0.168-0.766,0.168c-0.52,0-0.918-0.185-1.201-0.555c-0.283-0.369-0.424-0.876-0.424-1.52V-143.644z
		 M-19.083-143.562c0,0.52,0.102,0.927,0.307,1.225c0.205,0.299,0.516,0.447,0.936,0.447c0.307,0,0.561-0.068,0.758-0.205
		c0.199-0.137,0.354-0.327,0.465-0.572v-1.961c-0.104-0.25-0.252-0.451-0.441-0.605c-0.191-0.152-0.449-0.229-0.771-0.229
		c-0.42,0-0.732,0.167-0.939,0.5s-0.311,0.772-0.311,1.32v0.081H-19.083z"/>
	<path fill="#FFFFFF" d="M-13.282-141.488c-0.563,0-1.018-0.19-1.365-0.572c-0.348-0.383-0.521-0.881-0.521-1.494v-0.215
		c0-0.617,0.172-1.122,0.518-1.514c0.348-0.393,0.77-0.588,1.271-0.588c0.529,0,0.938,0.16,1.229,0.481s0.438,0.763,0.438,1.321
		v0.398h-2.984v0.113c0,0.484,0.129,0.884,0.387,1.199c0.258,0.314,0.602,0.473,1.031,0.473c0.258,0,0.484-0.037,0.678-0.111
		s0.379-0.191,0.553-0.354l0.199,0.32c-0.158,0.166-0.354,0.297-0.582,0.395S-12.946-141.488-13.282-141.488z M-13.38-145.472
		c-0.352,0-0.645,0.131-0.877,0.393c-0.234,0.262-0.375,0.602-0.428,1.019h2.504v-0.117c0-0.375-0.105-0.685-0.316-0.929
		C-12.708-145.349-13.003-145.472-13.38-145.472z"/>
	<path fill="#FFFFFF" d="M-8.103-147.254l2.102,5.035l2.109-5.035h0.617v5.688h-0.465v-2.512l0.039-2.521l-0.012-0.004l-2.125,5.034
		h-0.324l-2.121-5.016l-0.012,0.004l0.043,2.5v2.514h-0.465v-5.688H-8.103z"/>
	<path fill="#FFFFFF" d="M0.765-141.566c-0.031-0.146-0.053-0.27-0.066-0.367c-0.012-0.098-0.02-0.199-0.02-0.301l-0.012-0.004
		c-0.154,0.219-0.359,0.397-0.613,0.539c-0.256,0.141-0.549,0.211-0.879,0.211c-0.42,0-0.742-0.106-0.965-0.32
		c-0.225-0.215-0.336-0.508-0.336-0.883c0-0.398,0.166-0.713,0.498-0.943s0.789-0.346,1.373-0.346h0.934v-0.523
		c0-0.308-0.096-0.546-0.287-0.715s-0.465-0.254-0.818-0.254c-0.332,0-0.605,0.081-0.816,0.244
		c-0.211,0.162-0.314,0.363-0.314,0.604l-0.465-0.004c0-0.333,0.148-0.623,0.449-0.871c0.303-0.246,0.689-0.371,1.166-0.371
		c0.479,0,0.855,0.116,1.135,0.351c0.277,0.233,0.418,0.575,0.418,1.024v2.078c0,0.151,0.008,0.297,0.021,0.434
		c0.016,0.139,0.045,0.277,0.086,0.418H0.765L0.765-141.566z M-0.771-141.898c0.344,0,0.643-0.077,0.896-0.232
		c0.252-0.154,0.438-0.357,0.553-0.607v-0.883h-0.941c-0.432,0-0.773,0.09-1.023,0.269s-0.375,0.403-0.375,0.678
		c0,0.231,0.078,0.419,0.232,0.563C-1.274-141.967-1.054-141.898-0.771-141.898z"/>
	<path fill="#FFFFFF" d="M2.815-145.792l0.039,0.78l0.012,0.004c0.135-0.269,0.32-0.479,0.551-0.633
		c0.232-0.154,0.504-0.229,0.816-0.229c0.457,0,0.801,0.133,1.035,0.397s0.352,0.694,0.352,1.284v2.623H5.151v-2.613
		c0-0.48-0.086-0.816-0.258-1.004s-0.43-0.281-0.773-0.281c-0.318,0-0.582,0.092-0.791,0.273s-0.367,0.414-0.471,0.695v2.93H2.39
		v-4.227H2.815z"/>
	<path fill="#FFFFFF" d="M9.519-141.566c-0.031-0.146-0.053-0.27-0.066-0.367c-0.012-0.098-0.02-0.199-0.02-0.301l-0.012-0.004
		c-0.154,0.219-0.357,0.397-0.613,0.539c-0.256,0.141-0.549,0.211-0.879,0.211c-0.42,0-0.74-0.106-0.965-0.32
		c-0.225-0.215-0.336-0.508-0.336-0.883c0-0.398,0.166-0.713,0.498-0.943s0.789-0.346,1.373-0.346h0.934v-0.523
		c0-0.308-0.096-0.546-0.287-0.715s-0.465-0.254-0.818-0.254c-0.332,0-0.605,0.081-0.816,0.244
		c-0.211,0.162-0.314,0.363-0.314,0.604l-0.465-0.004c0-0.333,0.148-0.623,0.449-0.871c0.303-0.246,0.689-0.371,1.166-0.371
		c0.479,0,0.855,0.116,1.135,0.351c0.277,0.233,0.418,0.575,0.418,1.024v2.078c0,0.151,0.008,0.297,0.021,0.434
		c0.016,0.139,0.045,0.277,0.086,0.418H9.519L9.519-141.566z M7.983-141.898c0.344,0,0.643-0.077,0.896-0.232
		c0.252-0.154,0.438-0.357,0.553-0.607v-0.883H8.491c-0.432,0-0.773,0.09-1.023,0.269s-0.375,0.403-0.375,0.678
		c0,0.231,0.078,0.419,0.232,0.563C7.479-141.967,7.7-141.898,7.983-141.898z"/>
	<path fill="#FFFFFF" d="M10.96-143.644c0-0.688,0.141-1.23,0.424-1.629c0.283-0.399,0.686-0.598,1.209-0.598
		c0.305,0,0.564,0.063,0.777,0.19s0.391,0.31,0.531,0.547l0.012-0.004l0.055-0.655h0.395v4.172c0,0.555-0.148,0.985-0.445,1.295
		c-0.297,0.309-0.719,0.463-1.27,0.463c-0.217,0-0.438-0.024-0.664-0.074c-0.227-0.051-0.432-0.121-0.613-0.215l0.121-0.375
		c0.186,0.089,0.369,0.154,0.551,0.201c0.182,0.045,0.381,0.067,0.598,0.067c0.42,0,0.734-0.118,0.941-0.356
		c0.209-0.238,0.314-0.573,0.314-1.006v-0.517l-0.014-0.004c-0.141,0.211-0.316,0.372-0.531,0.483
		c-0.213,0.112-0.469,0.168-0.766,0.168c-0.518,0-0.918-0.185-1.201-0.555c-0.283-0.369-0.424-0.876-0.424-1.52V-143.644
		L10.96-143.644z M11.429-143.562c0,0.52,0.102,0.927,0.307,1.225c0.205,0.299,0.516,0.447,0.936,0.447
		c0.309,0,0.561-0.068,0.758-0.205c0.199-0.137,0.354-0.327,0.467-0.572v-1.961c-0.105-0.25-0.252-0.451-0.443-0.605
		c-0.191-0.152-0.449-0.229-0.771-0.229c-0.42,0-0.732,0.167-0.939,0.5s-0.311,0.772-0.311,1.32v0.081H11.429z"/>
	<path fill="#FFFFFF" d="M17.229-141.488c-0.563,0-1.018-0.19-1.365-0.572c-0.346-0.383-0.521-0.881-0.521-1.494v-0.215
		c0-0.617,0.172-1.122,0.52-1.514c0.346-0.393,0.768-0.588,1.27-0.588c0.529,0,0.939,0.16,1.23,0.481s0.436,0.763,0.436,1.321v0.398
		h-2.984v0.113c0,0.484,0.129,0.884,0.387,1.199c0.258,0.314,0.602,0.473,1.031,0.473c0.258,0,0.484-0.037,0.678-0.111
		c0.195-0.074,0.379-0.191,0.553-0.354l0.199,0.32c-0.158,0.166-0.352,0.297-0.582,0.395
		C17.851-141.537,17.565-141.488,17.229-141.488z M17.132-145.472c-0.352,0-0.645,0.131-0.877,0.393s-0.375,0.602-0.428,1.019h2.504
		v-0.117c0-0.375-0.105-0.685-0.316-0.929C17.804-145.349,17.509-145.472,17.132-145.472z"/>
	<path fill="#FFFFFF" d="M20.128-145.792l0.035,0.741l0.012,0.004c0.135-0.258,0.318-0.46,0.549-0.604
		c0.23-0.146,0.504-0.219,0.822-0.219c0.33,0,0.602,0.074,0.813,0.227s0.359,0.388,0.445,0.711h0.012
		c0.131-0.284,0.314-0.512,0.555-0.682c0.24-0.172,0.527-0.256,0.863-0.256c0.445,0,0.787,0.139,1.021,0.42
		c0.234,0.279,0.354,0.722,0.354,1.326v2.559H25.14v-2.559c0-0.504-0.086-0.853-0.258-1.048c-0.172-0.194-0.424-0.293-0.758-0.293
		c-0.373,0.005-0.666,0.134-0.879,0.386c-0.213,0.25-0.334,0.533-0.359,0.85v2.664h-0.469v-2.602c0-0.478-0.088-0.813-0.262-1.007
		c-0.176-0.194-0.428-0.291-0.758-0.291c-0.334,0-0.602,0.093-0.801,0.277c-0.197,0.184-0.342,0.422-0.428,0.711v2.909h-0.473
		v-4.227h0.432V-145.792z"/>
	<path fill="#FFFFFF" d="M28.44-141.488c-0.563,0-1.018-0.19-1.365-0.572c-0.346-0.383-0.521-0.881-0.521-1.494v-0.215
		c0-0.617,0.174-1.122,0.52-1.514c0.346-0.393,0.768-0.588,1.27-0.588c0.529,0,0.939,0.16,1.23,0.481s0.436,0.763,0.436,1.321v0.398
		h-2.984v0.113c0,0.484,0.129,0.884,0.387,1.199c0.258,0.314,0.602,0.473,1.031,0.473c0.258,0,0.484-0.037,0.678-0.111
		c0.195-0.074,0.379-0.191,0.553-0.354l0.199,0.32c-0.158,0.166-0.352,0.297-0.582,0.395
		C29.062-141.537,28.776-141.488,28.44-141.488z M28.343-145.472c-0.352,0-0.645,0.131-0.877,0.393s-0.375,0.602-0.428,1.019h2.504
		v-0.117c0-0.375-0.105-0.685-0.316-0.929C29.015-145.349,28.72-145.472,28.343-145.472z"/>
	<path fill="#FFFFFF" d="M31.358-145.792l0.039,0.78l0.012,0.004c0.135-0.269,0.32-0.479,0.551-0.633
		c0.232-0.154,0.504-0.229,0.816-0.229c0.457,0,0.801,0.133,1.035,0.397s0.352,0.694,0.352,1.284v2.623h-0.469v-2.613
		c0-0.48-0.086-0.816-0.258-1.004s-0.43-0.281-0.773-0.281c-0.318,0-0.582,0.092-0.791,0.273s-0.367,0.414-0.471,0.695v2.93h-0.469
		v-4.227H31.358z"/>
	<path fill="#FFFFFF" d="M36.062-146.875v1.082h0.887v0.383h-0.887v2.754c0,0.281,0.047,0.479,0.139,0.592
		c0.094,0.113,0.219,0.17,0.377,0.17c0.068,0,0.129-0.004,0.184-0.01c0.057-0.008,0.125-0.019,0.211-0.033l0.066,0.352
		c-0.07,0.028-0.154,0.053-0.25,0.07s-0.193,0.027-0.293,0.027c-0.291,0-0.514-0.092-0.67-0.271
		c-0.154-0.18-0.232-0.479-0.232-0.896v-2.754h-0.693v-0.383h0.693v-1.082H36.062L36.062-146.875z"/>
</g>
</svg>
