<?xml version="1.0" encoding="utf-8"?>
<!-- Generator: Adobe Illustrator 16.0.0, SVG Export Plug-In . SVG Version: 6.00 Build 0)  -->
<!DOCTYPE svg PUBLIC "-//W3C//DTD SVG 1.1//EN" "http://www.w3.org/Graphics/SVG/1.1/DTD/svg11.dtd">
<svg version="1.1" id="Capa_1" xmlns="http://www.w3.org/2000/svg" xmlns:xlink="http://www.w3.org/1999/xlink" x="0px" y="0px"
	 width="40px" height="40px" viewBox="60.651 222.606 40 40" enable-background="new 60.651 222.606 40 40" xml:space="preserve">
<g>
	<path fill="#E74C3C" d="M90.651,240.106v-7.5c0-5.513-4.484-10-10-10c-5.514,0-10,4.487-10,10v7.5c-2.761,0-5,2.239-5,5v12.5
		c0,2.762,2.239,5,5,5h20c2.761,0,5-2.238,5-5v-12.5C95.651,242.345,93.412,240.106,90.651,240.106z M81.901,252.222v4.134
		c0,0.69-0.559,1.25-1.25,1.25c-0.691,0-1.25-0.56-1.25-1.25v-4.134c-0.734-0.435-1.25-1.201-1.25-2.116c0-1.382,1.12-2.5,2.5-2.5
		s2.5,1.118,2.5,2.5C83.151,251.021,82.634,251.788,81.901,252.222z M85.651,240.106h-10v-7.5c0-2.759,2.242-5,5-5
		c2.756,0,5,2.242,5,5V240.106L85.651,240.106z"/>
</g>
</svg>
