<?xml version="1.0" encoding="utf-8"?>
<!-- Generator: Adobe Illustrator 16.0.0, SVG Export Plug-In . SVG Version: 6.00 Build 0)  -->
<!DOCTYPE svg PUBLIC "-//W3C//DTD SVG 1.1//EN" "http://www.w3.org/Graphics/SVG/1.1/DTD/svg11.dtd">
<svg version="1.1" id="Capa_1" xmlns="http://www.w3.org/2000/svg" xmlns:xlink="http://www.w3.org/1999/xlink" x="0px" y="0px"
	 width="366px" height="500px" viewBox="316.654 0.293 366 500" enable-background="new 316.654 0.293 366 500"
	 xml:space="preserve">
<g>
	<path fill="#2D2D2D" d="M623.849,248.91c-32.428,0-58.808-26.353-58.808-58.745c0-32.4,26.38-58.76,58.808-58.76
		c32.412,0,58.79,26.359,58.798,58.76C682.646,222.558,656.271,248.91,623.849,248.91z M623.849,155.222
		c-19.296,0-34.995,15.68-34.995,34.953c0,19.264,15.699,34.937,34.995,34.937c19.268,0,34.951-15.673,34.959-34.937
		C658.808,170.901,643.126,155.222,623.849,155.222z"/>
	<path fill="#2D2D2D" d="M623.847,373.308c-30.714,0-56.477-23.959-58.652-54.546l-0.061-0.867l-0.87-0.063
		c-6.27-0.453-13.579-0.963-20.24-1.32c-15.799-0.819-28.251-10.906-38.256-19.014l-0.85-0.686c-3.174-2.565-6.17-4.987-9.062-6.848
		c-7.302-5.24-13.004-10.302-18.519-15.196c-12.685-11.283-21.191-18.164-32.756-18.929l-0.125-0.008l-0.122,0.023
		c-3.043,0.557-6.315,0.899-9.726,1.021l-1.726,0.096l-0.158,0.755c-5.725,27.423-29.276,46.573-57.271,46.573
		c-32.425,0-58.801-26.355-58.801-58.75c0-32.392,26.376-58.744,58.801-58.744c26.764,0,50.103,18.203,56.757,44.269l0.194,0.762
		l1.879-0.015c1.91,0,4.157,0.013,6.291,0.104l1.758,0.029l0.128-0.032c3.176-0.787,7.034-2.721,11.569-11.092
		c8.142-13.601,8.019-28.278,7.879-45.275c-0.045-7.369-0.088-14.32,0.414-21.346c2.033-25.3,17.43-56.123,36.611-73.28
		c15.752-13.698,33.868-17.848,49.854-21.51c5.233-1.203,10.784-2.533,15.907-4.103l0.646-0.198l0.062-0.672
		c2.764-30.874,27.894-54.155,58.451-54.155c15.682,0,30.44,6.119,41.557,17.23c11.12,11.111,17.242,25.86,17.242,41.531
		c0,32.392-26.376,58.744-58.799,58.744c-24.737,0-46.3-14.916-54.931-38.001l-0.323-0.867l-0.891,0.253
		c-4.083,1.156-8.392,2.25-13.563,3.443c-15.219,3.508-28.362,6.538-39.455,16.166c-14.26,12.731-27.089,38.401-28.611,57.229
		c-0.433,6.381-0.388,12.979-0.345,19.358c0.133,18.01,0.279,38.423-11.011,57.226c-1.163,2.126-2.408,4.125-3.716,5.979
		l-0.627,0.893l0.94,0.551c8.148,4.781,15.309,11.123,21.625,16.719l0.292,0.26c4.759,4.235,10.151,9.034,16.047,13.287
		c3.507,2.251,7.59,5.522,11.477,8.684c8.072,6.549,16.418,13.322,24.522,13.758c6.982,0.385,15.299,0.938,22.82,1.518l0.747,0.057
		l0.27-0.699c8.665-22.612,30.657-37.806,54.725-37.806c32.414,0,58.79,26.348,58.796,58.732
		C682.645,346.944,656.269,373.308,623.847,373.308z M623.849,279.603c-19.296,0-34.995,15.672-34.995,34.937
		c0,19.269,15.699,34.945,34.995,34.945c19.268,0,34.951-15.677,34.959-34.945C658.808,295.274,643.126,279.603,623.849,279.603z
		 M375.445,210.605c-19.283,0-34.971,15.672-34.971,34.936c0,19.268,15.688,34.944,34.971,34.944
		c18.517,0,33.794-14.559,34.783-33.146l-0.018-3.941C409.229,224.988,393.958,210.605,375.445,210.605z M623.849,24.109
		c-19.296,0-34.995,15.676-34.995,34.944s15.699,34.945,34.995,34.945c19.277,0,34.959-15.677,34.959-34.945
		S643.126,24.109,623.849,24.109z"/>
	<path fill="#2D2D2D" d="M623.849,500.293c-32.428,0-58.808-26.355-58.808-58.753c0-32.392,26.38-58.743,58.808-58.743
		c32.412,0,58.79,26.354,58.798,58.743C682.646,473.938,656.271,500.293,623.849,500.293z M623.849,406.596
		c-19.296,0-34.995,15.676-34.995,34.944s15.699,34.944,34.995,34.944c19.268,0,34.951-15.676,34.959-34.944
		C658.808,422.271,643.126,406.596,623.849,406.596z"/>
</g>
</svg>
