<?xml version="1.0" encoding="utf-8"?>
<!-- Generator: Adobe Illustrator 16.0.0, SVG Export Plug-In . SVG Version: 6.00 Build 0)  -->
<!DOCTYPE svg PUBLIC "-//W3C//DTD SVG 1.1//EN" "http://www.w3.org/Graphics/SVG/1.1/DTD/svg11.dtd">
<svg version="1.1" id="Capa_1" xmlns="http://www.w3.org/2000/svg" xmlns:xlink="http://www.w3.org/1999/xlink" x="0px" y="0px"
	 width="470.586px" height="470.586px" viewBox="0 0 470.586 470.586" enable-background="new 0 0 470.586 470.586"
	 xml:space="preserve">
<g>
	<path fill="#2D2D2D" d="M198.094-14.707H-51.129c-16.734,0-30.361,13.769-30.361,30.662v438.67
		c0,16.92,13.627,30.668,30.361,30.668h305.274c16.749,0,30.364-13.748,30.364-30.668V80.104L198.094-14.707z M205.261,31.176
		l37.877,41.566h-37.877V31.176z M259.011,454.626c0,2.701-2.189,4.918-4.876,4.918H-51.129c-2.683,0-4.86-2.217-4.86-4.918V15.955
		c0-2.707,2.177-4.9,4.86-4.9h230.876v74.567c0,7.1,5.728,12.855,12.763,12.855h66.5V454.626z M-11.006,122.239h216.54
		c5.275,0,9.551,4.32,9.551,9.646s-4.276,9.646-9.551,9.646h-216.54c-5.274,0-9.553-4.32-9.553-9.646
		C-20.56,126.561-16.28,122.239-11.006,122.239z M215.085,196.71c0,5.326-4.276,9.647-9.551,9.647h-216.54
		c-5.274,0-9.553-4.32-9.553-9.647c0-5.326,4.279-9.646,9.553-9.646h216.54C210.809,187.063,215.085,191.385,215.085,196.71z
		 M215.085,259.412c0,5.326-4.276,9.646-9.551,9.646h-216.54c-5.274,0-9.553-4.32-9.553-9.646s4.279-9.646,9.553-9.646h216.54
		C210.809,249.766,215.085,254.086,215.085,259.412z M215.085,323.182c0,5.326-4.276,9.646-9.551,9.646h-216.54
		c-5.274,0-9.553-4.32-9.553-9.646s4.279-9.647,9.553-9.647h216.54C210.809,313.534,215.085,317.855,215.085,323.182z"/>
</g>
<g>
	<path fill="#2D2D2D" d="M-471.851,485.293c-17.774,0-31.179-13.404-31.179-31.178V129.762h-29.938V76.347
		c0-17.644,13.82-31.464,31.464-31.464h57.892V-2.063c0-7.209,5.436-12.645,12.644-12.645h160.403l3.661,0.005
		c7.226,0.091,12.806,5.61,12.806,12.64v46.945h57.607c17.645,0,31.463,13.82,31.463,31.464v53.415h-29.652v324.354
		c0,17.773-13.525,31.178-31.461,31.178H-471.851z M-477.74,454.115c0,3.688,2.201,5.889,5.889,5.889h245.709
		c3.688,0,5.889-2.201,5.889-5.889V129.761H-477.74V454.115z M-501.503,70.171c-3.578,0-5.89,2.424-5.89,6.175v28.127h316.791
		V76.346c0-3.751-2.311-6.175-5.889-6.175H-501.503z M-418.468,44.883h138.652V10.581h-138.652V44.883z"/>
	<g>
		<rect x="-285.798" y="108.606" fill="#2D2D2D" width="19.293" height="253.375"/>
		<rect x="-358.788" y="108.606" fill="#2D2D2D" width="19.293" height="253.375"/>
		<rect x="-431.778" y="108.606" fill="#2D2D2D" width="19.293" height="253.375"/>
	</g>
</g>
<g>
	<path fill="#2D2D2D" d="M714.074-14.707H464.853c-16.735,0-30.362,13.769-30.362,30.662v438.67
		c0,16.92,13.627,30.668,30.362,30.668h305.273c16.749,0,30.364-13.748,30.364-30.668V80.104L714.074-14.707z M721.241,31.176
		l37.877,41.566h-37.877V31.176z M774.99,454.625c0,2.701-2.189,4.918-4.876,4.918H464.853c-2.685,0-4.86-2.217-4.86-4.918V15.955
		c0-2.707,2.176-4.9,4.86-4.9h230.875v74.567c0,7.1,5.728,12.855,12.763,12.855h66.5V454.625z"/>
	<path fill="#2D2D2D" d="M509.221,225.646h216.54c5.274,0,9.551,4.32,9.551,9.646s-4.276,9.646-9.551,9.646h-216.54
		c-5.273,0-9.552-4.32-9.552-9.646C499.669,229.968,503.947,225.646,509.221,225.646z"/>
	<path fill="#2D2D2D" d="M607.937,344.617V125.968c0-5.326,4.279-9.645,9.554-9.645s9.554,4.318,9.554,9.645v218.649
		c0,5.325-4.279,9.646-9.554,9.646S607.937,349.942,607.937,344.617z"/>
</g>
<g>
	<path fill="#2D2D2D" d="M1207.849,233.91c-32.428,0-58.808-26.353-58.808-58.745c0-32.4,26.38-58.76,58.808-58.76
		c32.412,0,58.79,26.359,58.798,58.76C1266.646,207.558,1240.271,233.91,1207.849,233.91z M1207.849,140.222
		c-19.296,0-34.995,15.68-34.995,34.953c0,19.264,15.699,34.937,34.995,34.937c19.268,0,34.951-15.673,34.959-34.937
		C1242.808,155.901,1227.126,140.222,1207.849,140.222z"/>
	<path fill="#2D2D2D" d="M1207.847,358.308c-30.714,0-56.477-23.959-58.652-54.546l-0.061-0.867l-0.87-0.063
		c-6.27-0.453-13.579-0.963-20.24-1.32c-15.799-0.819-28.251-10.906-38.256-19.014l-0.85-0.686c-3.174-2.565-6.17-4.987-9.062-6.848
		c-7.302-5.24-13.004-10.302-18.519-15.196c-12.685-11.283-21.191-18.164-32.756-18.929l-0.125-0.008l-0.122,0.023
		c-3.043,0.557-6.315,0.899-9.726,1.021l-1.726,0.096l-0.158,0.755c-5.725,27.423-29.276,46.573-57.271,46.573
		c-32.425,0-58.801-26.355-58.801-58.75c0-32.392,26.376-58.744,58.801-58.744c26.764,0,50.103,18.203,56.757,44.269l0.194,0.762
		l1.879-0.015c1.91,0,4.157,0.013,6.291,0.104l1.758,0.029l0.128-0.032c3.176-0.787,7.034-2.721,11.569-11.092
		c8.142-13.601,8.019-28.278,7.879-45.275c-0.045-7.369-0.088-14.32,0.414-21.346c2.033-25.3,17.43-56.123,36.611-73.28
		c15.752-13.698,33.868-17.848,49.854-21.51c5.233-1.203,10.784-2.533,15.907-4.103l0.646-0.198l0.062-0.672
		c2.764-30.874,27.894-54.155,58.451-54.155c15.682,0,30.44,6.119,41.557,17.23c11.12,11.111,17.242,25.86,17.242,41.531
		c0,32.392-26.376,58.744-58.799,58.744c-24.737,0-46.3-14.916-54.931-38.001l-0.323-0.867l-0.891,0.253
		c-4.083,1.156-8.392,2.25-13.563,3.443c-15.219,3.508-28.362,6.538-39.455,16.166c-14.26,12.731-27.089,38.401-28.611,57.229
		c-0.433,6.381-0.388,12.979-0.345,19.358c0.133,18.01,0.279,38.423-11.011,57.226c-1.163,2.126-2.408,4.125-3.716,5.979
		l-0.627,0.893l0.94,0.551c8.148,4.781,15.309,11.123,21.625,16.719l0.292,0.26c4.759,4.235,10.151,9.034,16.047,13.287
		c3.507,2.251,7.59,5.522,11.477,8.684c8.072,6.549,16.418,13.322,24.522,13.758c6.982,0.385,15.299,0.938,22.82,1.518l0.747,0.057
		l0.27-0.699c8.665-22.612,30.657-37.806,54.725-37.806c32.414,0,58.79,26.348,58.796,58.732
		C1266.645,331.944,1240.269,358.308,1207.847,358.308z M1207.849,264.603c-19.296,0-34.995,15.672-34.995,34.937
		c0,19.269,15.699,34.945,34.995,34.945c19.268,0,34.951-15.677,34.959-34.945C1242.808,280.274,1227.126,264.603,1207.849,264.603z
		 M959.445,195.605c-19.283,0-34.971,15.672-34.971,34.936c0,19.268,15.688,34.944,34.971,34.944
		c18.517,0,33.794-14.559,34.783-33.146l-0.018-3.941C993.229,209.988,977.958,195.605,959.445,195.605z M1207.849,9.109
		c-19.296,0-34.995,15.676-34.995,34.944s15.699,34.945,34.995,34.945c19.277,0,34.959-15.677,34.959-34.945
		S1227.126,9.109,1207.849,9.109z"/>
	<path fill="#2D2D2D" d="M1207.849,485.293c-32.428,0-58.808-26.355-58.808-58.753c0-32.392,26.38-58.743,58.808-58.743
		c32.412,0,58.79,26.354,58.798,58.743C1266.646,458.938,1240.271,485.293,1207.849,485.293z M1207.849,391.596
		c-19.296,0-34.995,15.676-34.995,34.944s15.699,34.944,34.995,34.944c19.268,0,34.951-15.676,34.959-34.944
		C1242.808,407.271,1227.126,391.596,1207.849,391.596z"/>
</g>
</svg>
