<?xml version="1.0" encoding="utf-8"?>
<!-- Generator: Adobe Illustrator 16.0.0, SVG Export Plug-In . SVG Version: 6.00 Build 0)  -->
<!DOCTYPE svg PUBLIC "-//W3C//DTD SVG 1.1//EN" "http://www.w3.org/Graphics/SVG/1.1/DTD/svg11.dtd">
<svg version="1.1" id="Capa_1" xmlns="http://www.w3.org/2000/svg" xmlns:xlink="http://www.w3.org/1999/xlink" x="0px" y="0px"
	 width="366px" height="500px" viewBox="51.51 -14.707 366 500" enable-background="new 51.51 -14.707 366 500"
	 xml:space="preserve">
<g>
	<path fill="#2D2D2D" d="M331.094-14.707H81.871c-16.734,0-30.361,13.769-30.361,30.662v438.67c0,16.92,13.627,30.668,30.361,30.668
		h305.274c16.749,0,30.364-13.748,30.364-30.668V80.104L331.094-14.707z M338.261,31.176l37.877,41.566h-37.877V31.176z
		 M392.011,454.626c0,2.701-2.189,4.918-4.876,4.918H81.871c-2.683,0-4.86-2.217-4.86-4.918V15.955c0-2.707,2.177-4.9,4.86-4.9
		h230.877v74.567c0,7.1,5.727,12.855,12.762,12.855h66.501V454.626z M121.994,122.239h216.54c5.275,0,9.552,4.32,9.552,9.646
		s-4.276,9.646-9.552,9.646h-216.54c-5.274,0-9.553-4.32-9.553-9.646C112.44,126.561,116.72,122.239,121.994,122.239z
		 M348.085,196.71c0,5.326-4.276,9.647-9.552,9.647h-216.54c-5.274,0-9.553-4.32-9.553-9.647c0-5.326,4.279-9.646,9.553-9.646
		h216.54C343.809,187.063,348.085,191.385,348.085,196.71z M348.085,259.412c0,5.326-4.276,9.646-9.552,9.646h-216.54
		c-5.274,0-9.553-4.32-9.553-9.646s4.279-9.646,9.553-9.646h216.54C343.809,249.766,348.085,254.086,348.085,259.412z
		 M348.085,323.182c0,5.326-4.276,9.646-9.552,9.646h-216.54c-5.274,0-9.553-4.32-9.553-9.646s4.279-9.647,9.553-9.647h216.54
		C343.809,313.534,348.085,317.855,348.085,323.182z"/>
</g>
</svg>
