<?xml version="1.0" encoding="utf-8"?>
<!-- Generator: Adobe Illustrator 16.0.0, SVG Export Plug-In . SVG Version: 6.00 Build 0)  -->
<!DOCTYPE svg PUBLIC "-//W3C//DTD SVG 1.1//EN" "http://www.w3.org/Graphics/SVG/1.1/DTD/svg11.dtd">
<svg version="1.1" id="Capa_1" xmlns="http://www.w3.org/2000/svg" xmlns:xlink="http://www.w3.org/1999/xlink" x="0px" y="0px"
	 width="366px" height="500px" viewBox="203.033 137.293 366 500" enable-background="new 203.033 137.293 366 500"
	 xml:space="preserve">
<g>
	<path fill="#2D2D2D" d="M263.827,637.293c-17.681,0-31.014-13.404-31.014-31.178V281.762h-29.78v-53.415
		c0-17.644,13.748-31.464,31.298-31.464h57.587v-46.945c0-7.209,5.407-12.645,12.577-12.645h159.559l3.641,0.005
		c7.188,0.091,12.739,5.61,12.739,12.64v46.945h57.303c17.552,0,31.298,13.82,31.298,31.464v53.415h-29.496v324.354
		c0,17.773-13.455,31.178-31.296,31.178H263.827z M257.969,606.115c0,3.688,2.189,5.889,5.857,5.889h244.415
		c3.668,0,5.858-2.201,5.858-5.889V281.761h-256.13V606.115z M234.331,222.171c-3.559,0-5.858,2.424-5.858,6.175v28.127h315.122
		v-28.127c0-3.751-2.299-6.175-5.858-6.175H234.331z M316.929,196.883h137.922v-34.302H316.929V196.883z"/>
	<g>
		<rect x="448.899" y="260.606" fill="#2D2D2D" width="19.191" height="253.375"/>
		<rect x="376.294" y="260.606" fill="#2D2D2D" width="19.191" height="253.375"/>
		<rect x="303.688" y="260.606" fill="#2D2D2D" width="19.191" height="253.375"/>
	</g>
</g>
</svg>
