<?xml version="1.0" encoding="utf-8"?>
<!-- Generator: Adobe Illustrator 16.0.0, SVG Export Plug-In . SVG Version: 6.00 Build 0)  -->
<!DOCTYPE svg PUBLIC "-//W3C//DTD SVG 1.1//EN" "http://www.w3.org/Graphics/SVG/1.1/DTD/svg11.dtd">
<svg version="1.1" id="Layer_1" xmlns="http://www.w3.org/2000/svg" xmlns:xlink="http://www.w3.org/1999/xlink" x="0px" y="0px"
	 width="122.834px" height="50.334px" viewBox="0 0 122.834 50.334" enable-background="new 0 0 122.834 50.334"
	 xml:space="preserve">
<linearGradient id="SVGID_1_" gradientUnits="userSpaceOnUse" x1="-1.5625" y1="25.1675" x2="121.2715" y2="25.1675">
	<stop  offset="0" style="stop-color:#CCCCCC"/>
	<stop  offset="1" style="stop-color:#FFFFFF"/>
</linearGradient>
<rect fill="url(#SVGID_1_)" width="122.834" height="50.334"/>
<linearGradient id="SVGID_2_" gradientUnits="userSpaceOnUse" x1="61.417" y1="57.0161" x2="61.417" y2="3.635">
	<stop  offset="0" style="stop-color:#CCCCCC"/>
	<stop  offset="1" style="stop-color:#FFFFFF"/>
</linearGradient>
<rect x="1" y="1" fill="url(#SVGID_2_)" width="120.834" height="48.334"/>
<g>
	<g opacity="0.25">
		<text transform="matrix(1 0 0 1 25.333 39.4341)" fill="#010101" font-family="'Helvetica'" font-size="22.8767">Cari</text>
	</g>
	<g>
		<text transform="matrix(1 0 0 1 25.333 39.9341)" fill="#58595B" font-family="'Helvetica'" font-size="22.8767">Cari</text>
	</g>
</g>
<g>
	<g>
		<path fill="#58595B" d="M102.728,38.036l-7.863-7.838c0.825-1.625,1.272-3.426,1.272-5.295c0-3.125-1.219-6.062-3.425-8.267
			c-2.209-2.209-5.146-3.425-8.268-3.425s-6.062,1.216-8.267,3.425c-2.21,2.209-3.426,5.143-3.426,8.267
			c0,3.121,1.216,6.059,3.426,8.268c2.208,2.205,5.145,3.422,8.267,3.422c1.872,0,3.671-0.445,5.294-1.271l7.84,7.863
			c0.711,0.713,1.644,1.068,2.576,1.068c0.929,0,1.862-0.355,2.573-1.068C104.148,41.764,104.148,39.458,102.728,38.036
			L102.728,38.036z M79.266,30.079c-1.382-1.385-2.146-3.219-2.146-5.176c0-1.957,0.765-3.794,2.146-5.179
			c1.384-1.381,3.223-2.145,5.179-2.145c1.957,0,3.796,0.76,5.176,2.145c1.385,1.385,2.146,3.223,2.146,5.179
			c0,1.953-0.761,3.791-2.146,5.176c-1.38,1.385-3.223,2.145-5.176,2.145C82.488,32.223,80.649,31.463,79.266,30.079L79.266,30.079z
			 M79.266,30.079"/>
	</g>
</g>
</svg>
